<svg width="1024" height="715" viewBox="0 0 1024 715" xmlns="http://www.w3.org/2000/svg"><title>forms_v1</title><g fill="none" fill-rule="evenodd"><rect fill="#FFF" x="192" y="95" width="640" height="751" rx="9"/><g transform="translate(220 459)"><path d="M118.16 100.51a2.842 2.842 0 0 0-1.092-1.105c-.485-.286-1.066-.43-1.742-.43a4.85 4.85 0 0 0-.975.105c-.337.07-.65.182-.935.338-.286.156-.52.36-.702.61-.182.252-.273.56-.273.924 0 .33.057.598.17.806.112.208.272.386.48.533.208.148.46.278.754.39.295.114.633.222 1.014.326 1.196.347 2.106.784 2.73 1.313.624.528.936 1.277.936 2.248 0 .66-.147 1.226-.442 1.703a3.797 3.797 0 0 1-1.118 1.17c-.45.304-.953.525-1.508.664-.554.14-1.1.208-1.638.208-1.022 0-1.98-.19-2.873-.572-.892-.38-1.59-.962-2.093-1.742l1.508-.988c.295.503.737.932 1.326 1.287.59.355 1.274.533 2.054.533.382 0 .754-.04 1.118-.117.364-.078.69-.2.975-.364.286-.166.516-.382.69-.65.173-.27.26-.586.26-.95 0-.64-.256-1.13-.768-1.47-.51-.337-1.243-.662-2.197-.974-.364-.12-.728-.26-1.092-.416a3.85 3.85 0 0 1-.988-.61 2.95 2.95 0 0 1-.715-.91c-.182-.356-.273-.785-.273-1.288 0-.624.143-1.16.43-1.612.285-.45.65-.82 1.09-1.105a4.93 4.93 0 0 1 1.496-.637 6.838 6.838 0 0 1 1.664-.208c.936 0 1.773.182 2.51.546.736.364 1.27.85 1.598 1.456l-1.378.988zm4.69 3.874c-.017.104-.03.204-.04.3a3.942 3.942 0 0 0 .286 1.833 3.73 3.73 0 0 0 2.08 2.027c.478.19.993.286 1.548.286.953 0 1.785-.212 2.496-.637.71-.425 1.283-.923 1.716-1.495l1.092 1.04c-.71.85-1.534 1.49-2.47 1.924a7.03 7.03 0 0 1-2.99.65c-.78 0-1.508-.12-2.184-.364a5.154 5.154 0 0 1-1.755-1.04 4.785 4.785 0 0 1-1.17-1.677c-.287-.666-.43-1.425-.43-2.274 0-.988.182-1.933.546-2.834.364-.9.862-1.69 1.495-2.366a7.346 7.346 0 0 1 2.237-1.625 6.374 6.374 0 0 1 2.77-.61c1.663 0 2.924.442 3.782 1.326.857.884 1.286 2.028 1.286 3.432 0 .208-.017.524-.052.95a7.2 7.2 0 0 1-.182 1.156H122.85zm8.502-1.3c.017-.14.03-.29.04-.455.008-.166.012-.317.012-.456 0-.936-.286-1.703-.858-2.3-.572-.6-1.413-.898-2.522-.898-.64 0-1.235.108-1.78.325a4.82 4.82 0 0 0-1.457.898 5.63 5.63 0 0 0-1.08 1.313 5.237 5.237 0 0 0-.623 1.574h8.268zm12.957-.546c.05-.295.086-.524.103-.69a4.37 4.37 0 0 0 .026-.454c0-.884-.252-1.508-.755-1.872-.502-.364-1.204-.546-2.106-.546-.73 0-1.43.143-2.107.43-.676.285-1.24.627-1.69 1.026l-.78-1.17c.59-.52 1.318-.94 2.184-1.26a7.38 7.38 0 0 1 2.574-.482 6.89 6.89 0 0 1 1.652.195c.53.13.988.338 1.378.624.39.285.702.65.936 1.09.234.443.35.976.35 1.6 0 .156-.007.368-.025.637-.016.27-.042.49-.077.663l-.884 4.94c-.087.468-.157.953-.21 1.456-.05.503-.077.927-.077 1.274h-1.56a12.926 12.926 0 0 1 .156-1.976h-.053c-.346.4-.693.74-1.04 1.027a5.032 5.032 0 0 1-1.08.69c-.37.173-.77.3-1.195.377a7.713 7.713 0 0 1-1.39.117c-.417 0-.84-.052-1.275-.156a3.404 3.404 0 0 1-1.183-.533 3.092 3.092 0 0 1-.884-.975c-.234-.4-.35-.893-.35-1.482 0-.97.277-1.755.83-2.353.556-.598 1.28-1.057 2.172-1.378.893-.32 1.894-.537 3.003-.65 1.11-.113 2.228-.17 3.354-.17zm-.65 1.326c-.78 0-1.578.04-2.393.117a10.41 10.41 0 0 0-2.223.443c-.667.217-1.213.52-1.638.91-.424.39-.637.906-.637 1.547 0 .38.07.698.207.95.14.25.325.45.56.597.233.147.502.25.805.312.304.06.61.09.923.09a4.58 4.58 0 0 0 1.716-.312c.52-.208.98-.494 1.38-.858.398-.364.727-.784.987-1.26.26-.478.442-.985.546-1.522l.182-1.014h-.416zm6.82-3.354c.07-.33.144-.754.222-1.274.078-.52.134-.988.17-1.404h1.663c-.035.33-.078.693-.13 1.092-.052.4-.104.728-.156.988h.05a5.54 5.54 0 0 1 1.717-1.73c.693-.44 1.473-.662 2.34-.662.225 0 .424.01.598.026.173.017.355.052.546.104l-.415 1.664a2.474 2.474 0 0 0-.48-.104 4.873 4.873 0 0 0-.716-.052 3.81 3.81 0 0 0-1.38.26c-.45.173-.862.446-1.234.82-.373.372-.702.848-.988 1.43-.286.58-.5 1.277-.637 2.092l-1.09 6.24h-1.743l1.664-9.49zm16.858.078c-.208-.468-.567-.854-1.08-1.157-.51-.302-1.095-.454-1.754-.454-.78 0-1.5.156-2.158.468a5.18 5.18 0 0 0-1.703 1.287 6.102 6.102 0 0 0-1.118 1.9 6.523 6.523 0 0 0-.403 2.3c0 .555.087 1.07.26 1.547.174.477.43.888.767 1.235.337.347.75.62 1.234.82.486.198 1.04.298 1.664.298.78 0 1.465-.147 2.054-.442a5.3 5.3 0 0 0 1.534-1.144l1.118.962a7.55 7.55 0 0 1-2.106 1.534c-.78.38-1.69.572-2.73.572-.866 0-1.646-.126-2.34-.377a5.163 5.163 0 0 1-1.78-1.066 4.567 4.567 0 0 1-1.132-1.652c-.26-.64-.39-1.352-.39-2.132 0-1.04.174-2.02.52-2.938a7.3 7.3 0 0 1 1.47-2.405 6.878 6.878 0 0 1 2.3-1.625c.902-.4 1.898-.598 2.99-.598.902 0 1.747.165 2.535.494.79.33 1.384.85 1.782 1.56l-1.534 1.014zm10.202-3.068c1.3 0 2.318.334 3.055 1 .736.668 1.105 1.574 1.105 2.718 0 .208-.013.416-.04.624a39.06 39.06 0 0 1-.09.676L180.244 110h-1.742l1.196-6.734a8.08 8.08 0 0 0 .156-1.534c0-.85-.204-1.52-.61-2.015-.41-.494-1.124-.74-2.146-.74-.468 0-.936.094-1.404.285-.468.19-.902.485-1.3.884-.4.4-.75.897-1.053 1.495-.303.6-.524 1.305-.662 2.12l-1.092 6.24h-1.742l3.458-19.656h1.742l-1.664 9.49h.052a5.004 5.004 0 0 1 1.768-1.69 4.64 4.64 0 0 1 2.34-.624zm20.117 1.768h-2.86L192.925 110h-1.742l1.872-10.712h-2.574l.287-1.456h2.522l.57-3.302c.105-.607.27-1.183.495-1.73a4.82 4.82 0 0 1 .897-1.43 4.2 4.2 0 0 1 1.34-.974c.52-.243 1.125-.364 1.82-.364.224 0 .458.013.7.04.243.025.486.073.73.142l-.417 1.534a4.445 4.445 0 0 0-1.222-.156c-.416 0-.776.078-1.08.234a2.052 2.052 0 0 0-.753.663c-.2.285-.364.62-.494 1s-.23.79-.3 1.222l-.545 3.12h2.913l-.286 1.456zm5.86 11.024c-.816 0-1.57-.13-2.263-.39a5.328 5.328 0 0 1-1.78-1.08 4.828 4.828 0 0 1-1.158-1.663 5.41 5.41 0 0 1-.416-2.146 7.9 7.9 0 0 1 .533-2.9 7.395 7.395 0 0 1 1.495-2.39 7.095 7.095 0 0 1 2.288-1.626c.884-.4 1.855-.598 2.912-.598.832 0 1.59.126 2.275.377.685.25 1.274.61 1.768 1.08.495.467.88 1.022 1.158 1.663.277.64.416 1.352.416 2.132 0 1.04-.178 2.02-.533 2.938a7.214 7.214 0 0 1-1.494 2.392 7.193 7.193 0 0 1-2.288 1.612c-.884.4-1.855.598-2.912.598zm5.407-7.436c0-.555-.087-1.07-.26-1.547a3.418 3.418 0 0 0-.767-1.236 3.62 3.62 0 0 0-1.235-.82c-.485-.198-1.03-.298-1.638-.298-.763 0-1.465.16-2.106.48-.64.322-1.196.755-1.664 1.3a6.45 6.45 0 0 0-1.508 4.173c0 .556.086 1.07.26 1.548.172.477.428.888.766 1.235.338.347.745.62 1.222.82.477.198 1.018.298 1.625.298.78 0 1.495-.16 2.145-.48.65-.322 1.21-.75 1.677-1.288a5.882 5.882 0 0 0 1.092-1.885c.26-.72.39-1.486.39-2.3zm5.834-2.366c.07-.33.143-.754.22-1.274.08-.52.135-.988.17-1.404h1.664c-.035.33-.078.693-.13 1.092-.052.4-.104.728-.156.988h.052a5.54 5.54 0 0 1 1.716-1.73c.693-.44 1.473-.662 2.34-.662.225 0 .424.01.598.026.173.017.355.052.546.104l-.416 1.664a2.474 2.474 0 0 0-.48-.104 4.873 4.873 0 0 0-.716-.052 3.81 3.81 0 0 0-1.378.26c-.45.173-.863.446-1.235.82-.373.372-.702.848-.988 1.43-.286.58-.5 1.277-.637 2.092l-1.092 6.24h-1.742l1.664-9.49zm22.196 2.028c.052-.295.087-.524.104-.69a4.37 4.37 0 0 0 .026-.454c0-.884-.25-1.508-.754-1.872-.502-.364-1.204-.546-2.106-.546-.728 0-1.43.143-2.106.43-.676.285-1.24.627-1.69 1.026l-.78-1.17c.59-.52 1.318-.94 2.184-1.26a7.38 7.38 0 0 1 2.574-.482 6.89 6.89 0 0 1 1.65.195c.53.13.99.338 1.38.624.39.285.7.65.935 1.09.235.443.352.976.352 1.6 0 .156-.008.368-.026.637-.017.27-.043.49-.078.663l-.884 4.94c-.086.468-.156.953-.208 1.456-.052.503-.078.927-.078 1.274h-1.56a12.926 12.926 0 0 1 .156-1.976h-.052c-.346.4-.693.74-1.04 1.027a5.032 5.032 0 0 1-1.08.69c-.37.173-.77.3-1.195.377a7.713 7.713 0 0 1-1.39.117c-.417 0-.84-.052-1.275-.156a3.404 3.404 0 0 1-1.183-.533 3.092 3.092 0 0 1-.885-.975c-.234-.4-.35-.893-.35-1.482 0-.97.277-1.755.83-2.353.556-.598 1.28-1.057 2.172-1.378.893-.32 1.894-.537 3.003-.65 1.11-.113 2.228-.17 3.354-.17zm-.65 1.326c-.78 0-1.577.04-2.392.117a10.41 10.41 0 0 0-2.223.443c-.668.217-1.214.52-1.64.91-.423.39-.636.906-.636 1.547 0 .38.07.698.208.95.14.25.325.45.56.597.233.147.502.25.805.312.304.06.61.09.923.09a4.58 4.58 0 0 0 1.716-.312c.52-.208.98-.494 1.378-.858.4-.364.728-.784.988-1.26.26-.478.442-.985.546-1.522l.182-1.014h-.416zm14.97-4.056c.19-.312.44-.607.753-.884.312-.277.663-.52 1.053-.728.39-.208.81-.373 1.26-.494.452-.12.92-.182 1.405-.182.832 0 1.582.126 2.25.377.667.25 1.243.61 1.728 1.08a4.775 4.775 0 0 1 1.118 1.663c.26.64.39 1.352.39 2.132 0 1.04-.18 2.02-.545 2.938a7.506 7.506 0 0 1-1.495 2.392 7.082 7.082 0 0 1-2.262 1.612c-.875.4-1.824.598-2.847.598a5.33 5.33 0 0 1-2.482-.598 3.98 3.98 0 0 1-1.755-1.768h-.052l-1.48 8.294h-1.743l3.276-18.408h1.742l-.364 1.976h.053zm8.137 3.068c0-.537-.08-1.044-.246-1.52a3.488 3.488 0 0 0-.74-1.25 3.452 3.452 0 0 0-1.197-.83c-.468-.2-1.014-.3-1.638-.3-.763 0-1.474.156-2.133.468a5.32 5.32 0 0 0-1.716 1.287 6.166 6.166 0 0 0-1.143 1.9 6.27 6.27 0 0 0-.416 2.274c0 .572.092 1.096.274 1.573.182.477.447.893.793 1.248a3.54 3.54 0 0 0 1.235.82c.477.19 1.02.285 1.625.285.798 0 1.52-.156 2.17-.468a5.16 5.16 0 0 0 1.678-1.274 5.698 5.698 0 0 0 1.08-1.885c.25-.72.376-1.495.376-2.327zm5.835-2.366c.07-.33.143-.754.22-1.274.08-.52.135-.988.17-1.404h1.664c-.036.33-.08.693-.13 1.092-.053.4-.105.728-.157.988h.052a5.54 5.54 0 0 1 1.716-1.73c.694-.44 1.474-.662 2.34-.662.226 0 .425.01.6.026.172.017.354.052.545.104l-.416 1.664a2.474 2.474 0 0 0-.482-.104 4.873 4.873 0 0 0-.715-.052 3.81 3.81 0 0 0-1.378.26c-.45.173-.863.446-1.235.82-.373.372-.702.848-.988 1.43-.286.58-.5 1.277-.637 2.092l-1.092 6.24h-1.742l1.665-9.49zm8.485 3.874c-.017.104-.03.204-.04.3a3.942 3.942 0 0 0 .286 1.833 3.73 3.73 0 0 0 2.08 2.027c.478.19.994.286 1.548.286.954 0 1.786-.212 2.496-.637.71-.425 1.283-.923 1.716-1.495l1.092 1.04c-.71.85-1.534 1.49-2.47 1.924a7.03 7.03 0 0 1-2.99.65c-.78 0-1.508-.12-2.184-.364a5.154 5.154 0 0 1-1.755-1.04 4.785 4.785 0 0 1-1.17-1.677c-.287-.666-.43-1.425-.43-2.274 0-.988.182-1.933.546-2.834.364-.9.863-1.69 1.495-2.366a7.346 7.346 0 0 1 2.237-1.625 6.374 6.374 0 0 1 2.77-.61c1.663 0 2.924.442 3.782 1.326.857.884 1.286 2.028 1.286 3.432 0 .208-.017.524-.052.95a7.2 7.2 0 0 1-.182 1.156H273.73zm8.502-1.3c.018-.14.03-.29.04-.455.008-.166.012-.317.012-.456 0-.936-.286-1.703-.858-2.3-.572-.6-1.412-.898-2.522-.898-.64 0-1.235.108-1.78.325a4.82 4.82 0 0 0-1.457.898 5.63 5.63 0 0 0-1.08 1.313 5.237 5.237 0 0 0-.623 1.574h8.268zm9.812 1.352h-5.824l.26-1.482h5.824l-.26 1.482zm12.385-3.848c-.21-.468-.568-.854-1.08-1.157-.51-.302-1.096-.454-1.755-.454-.78 0-1.5.156-2.158.468a5.18 5.18 0 0 0-1.703 1.287 6.102 6.102 0 0 0-1.118 1.9 6.523 6.523 0 0 0-.403 2.3c0 .555.087 1.07.26 1.547.174.477.43.888.767 1.235.338.347.75.62 1.235.82.486.198 1.04.298 1.664.298.78 0 1.464-.147 2.053-.442a5.3 5.3 0 0 0 1.534-1.144l1.118.962a7.55 7.55 0 0 1-2.106 1.534c-.78.38-1.69.572-2.73.572-.867 0-1.647-.126-2.34-.377a5.163 5.163 0 0 1-1.782-1.066 4.567 4.567 0 0 1-1.13-1.652c-.26-.64-.39-1.352-.39-2.132 0-1.04.173-2.02.52-2.938a7.3 7.3 0 0 1 1.468-2.405 6.878 6.878 0 0 1 2.3-1.625c.903-.4 1.9-.598 2.99-.598.903 0 1.748.165 2.536.494.79.33 1.383.85 1.78 1.56l-1.533 1.014zm8.07 9.724c-.816 0-1.57-.13-2.263-.39a5.328 5.328 0 0 1-1.78-1.08 4.828 4.828 0 0 1-1.158-1.663 5.41 5.41 0 0 1-.417-2.146 7.9 7.9 0 0 1 .533-2.9 7.395 7.395 0 0 1 1.495-2.39 7.095 7.095 0 0 1 2.29-1.626c.883-.4 1.853-.598 2.91-.598.833 0 1.59.126 2.276.377.684.25 1.274.61 1.768 1.08.494.467.88 1.022 1.157 1.663.278.64.417 1.352.417 2.132 0 1.04-.178 2.02-.533 2.938a7.214 7.214 0 0 1-1.495 2.392 7.193 7.193 0 0 1-2.29 1.612c-.883.4-1.854.598-2.91.598zm5.407-7.436c0-.555-.087-1.07-.26-1.547a3.418 3.418 0 0 0-.767-1.236 3.62 3.62 0 0 0-1.235-.82c-.486-.198-1.032-.298-1.638-.298-.763 0-1.465.16-2.106.48-.64.322-1.195.755-1.663 1.3a6.45 6.45 0 0 0-1.508 4.173c0 .556.086 1.07.26 1.548.172.477.428.888.766 1.235.338.347.745.62 1.222.82.476.198 1.018.298 1.625.298.78 0 1.495-.16 2.145-.48.65-.322 1.21-.75 1.677-1.288a5.882 5.882 0 0 0 1.092-1.885c.26-.72.39-1.486.39-2.3zm7.913-5.044c-.035.33-.078.693-.13 1.092-.052.4-.104.728-.156.988h.052a5.147 5.147 0 0 1 1.807-1.755 4.637 4.637 0 0 1 2.353-.637c1.317 0 2.344.334 3.08 1 .738.668 1.106 1.574 1.106 2.718 0 .208-.013.416-.04.624a39.06 39.06 0 0 1-.09.676L332.476 110h-1.742l1.196-6.734a8.08 8.08 0 0 0 .156-1.534c0-.85-.2-1.52-.598-2.015-.4-.494-1.1-.74-2.106-.74-.468 0-.936.094-1.404.285a4.08 4.08 0 0 0-1.313.884c-.407.4-.767.897-1.08 1.495-.31.6-.536 1.305-.675 2.12l-1.092 6.24h-1.742l1.664-9.49c.07-.33.143-.754.22-1.274.08-.52.135-.988.17-1.404h1.69zm17.924 1.456h-2.86L339.012 110h-1.742l1.872-10.712h-2.574l.286-1.456h2.522l.572-3.302c.104-.607.268-1.183.494-1.73a4.82 4.82 0 0 1 .897-1.43 4.2 4.2 0 0 1 1.338-.974c.52-.243 1.126-.364 1.82-.364.225 0 .46.013.702.04.242.025.485.073.728.142l-.416 1.534a4.445 4.445 0 0 0-1.222-.156c-.416 0-.776.078-1.08.234a2.052 2.052 0 0 0-.753.663c-.2.285-.364.62-.494 1s-.23.79-.3 1.222l-.545 3.12h2.912l-.286 1.456zM346.136 110h-1.742l2.158-12.168h1.742L346.136 110zm3.198-16.874c0 .347-.117.64-.35.884a1.16 1.16 0 0 1-.872.364c-.33 0-.61-.104-.845-.312-.234-.208-.35-.494-.35-.858s.124-.667.376-.91c.25-.243.54-.364.87-.364.33 0 .607.108.833.325.225.217.338.507.338.87zm1.31 19.422c.432.624 1.043 1.14 1.832 1.547.79.407 1.65.61 2.587.61.867 0 1.612-.125 2.236-.376a4.324 4.324 0 0 0 1.56-1.04c.415-.443.744-.954.987-1.535.243-.58.425-1.2.546-1.86l.442-2.313h-.052a5.718 5.718 0 0 1-2.028 1.794 5.536 5.536 0 0 1-2.6.624c-.832 0-1.582-.134-2.25-.403a4.844 4.844 0 0 1-1.702-1.13 5.077 5.077 0 0 1-1.08-1.69 5.723 5.723 0 0 1-.376-2.107c0-.988.178-1.915.533-2.782a7.073 7.073 0 0 1 1.482-2.275 6.91 6.91 0 0 1 2.25-1.534c.866-.374 1.81-.56 2.833-.56.433 0 .867.052 1.3.156.433.104.836.26 1.21.468a4.33 4.33 0 0 1 1 .767c.295.304.53.647.702 1.028h.052l.39-2.106h1.715l-2.132 12.064c-.12.66-.303 1.36-.546 2.106a6.29 6.29 0 0 1-1.13 2.054c-.512.624-1.193 1.144-2.042 1.56-.85.416-1.95.624-3.302.624-1.196 0-2.28-.217-3.25-.65-.97-.433-1.75-1.03-2.34-1.794l1.17-1.248zm1.897-7.852c0 .52.088 1.014.26 1.482.174.468.426.88.755 1.235a3.4 3.4 0 0 0 1.222.832c.485.2 1.04.3 1.664.3a5.01 5.01 0 0 0 2.146-.456 5.173 5.173 0 0 0 1.677-1.236 5.694 5.694 0 0 0 1.092-1.807c.26-.685.39-1.408.39-2.17 0-.538-.09-1.045-.273-1.522a3.57 3.57 0 0 0-.78-1.235 3.78 3.78 0 0 0-1.235-.832 4.12 4.12 0 0 0-1.638-.312c-.78 0-1.496.14-2.146.416a4.828 4.828 0 0 0-1.664 1.157c-.46.493-.82 1.095-1.08 1.806-.26.71-.39 1.49-.39 2.34zM374.99 110c.035-.33.078-.693.13-1.092.052-.4.104-.728.156-.988h-.052a5.147 5.147 0 0 1-1.807 1.755 4.637 4.637 0 0 1-2.353.637c-1.317 0-2.344-.334-3.08-1-.737-.668-1.106-1.574-1.106-2.718 0-.208.013-.416.04-.624.025-.208.056-.433.09-.676l1.326-7.462h1.742l-1.196 6.734a8.368 8.368 0 0 0-.156 1.534c0 .85.2 1.517.598 2.002.4.485 1.1.728 2.106.728.468 0 .936-.095 1.404-.286a4.18 4.18 0 0 0 1.313-.87c.408-.39.767-.885 1.08-1.483.31-.597.537-1.303.675-2.118l1.092-6.24h1.742l-1.664 9.49a22.9 22.9 0 0 0-.22 1.274c-.08.52-.135.988-.17 1.404h-1.69zm7.784-9.49c.07-.33.143-.754.22-1.274.08-.52.135-.988.17-1.404h1.664c-.035.33-.078.693-.13 1.092-.052.4-.104.728-.156.988h.052a5.54 5.54 0 0 1 1.716-1.73c.693-.44 1.473-.662 2.34-.662.225 0 .425.01.598.026.173.017.355.052.546.104l-.416 1.664a2.474 2.474 0 0 0-.48-.104 4.873 4.873 0 0 0-.716-.052 3.81 3.81 0 0 0-1.378.26c-.45.173-.862.446-1.235.82-.373.372-.702.848-.988 1.43-.287.58-.5 1.277-.638 2.092L382.85 110h-1.742l1.664-9.49zm8.485 3.874c-.017.104-.03.204-.04.3a3.942 3.942 0 0 0 .286 1.833 3.73 3.73 0 0 0 2.08 2.027c.478.19.994.286 1.548.286.955 0 1.787-.212 2.497-.637.71-.425 1.283-.923 1.716-1.495l1.092 1.04c-.71.85-1.534 1.49-2.47 1.924a7.03 7.03 0 0 1-2.99.65c-.78 0-1.508-.12-2.184-.364a5.154 5.154 0 0 1-1.754-1.04 4.785 4.785 0 0 1-1.17-1.677c-.286-.666-.43-1.425-.43-2.274 0-.988.183-1.933.547-2.834.364-.9.863-1.69 1.495-2.366a7.346 7.346 0 0 1 2.236-1.625 6.374 6.374 0 0 1 2.77-.61c1.663 0 2.924.442 3.782 1.326.858.884 1.287 2.028 1.287 3.432 0 .208-.017.524-.052.95a7.2 7.2 0 0 1-.18 1.156h-10.063zm8.502-1.3a8.704 8.704 0 0 0 .052-.91c0-.937-.287-1.704-.86-2.302-.57-.598-1.41-.897-2.52-.897-.642 0-1.236.108-1.782.325a4.82 4.82 0 0 0-1.456.898 5.63 5.63 0 0 0-1.08 1.313 5.237 5.237 0 0 0-.623 1.574h8.27zm4.04 1.976c0-1.04.176-2.02.532-2.938a7.214 7.214 0 0 1 1.495-2.392 7.234 7.234 0 0 1 2.275-1.612 6.787 6.787 0 0 1 2.847-.598c.883 0 1.71.2 2.482.598.77.4 1.356.988 1.755 1.768h.052l1.69-9.542h1.74L415.188 110h-1.742l.364-2.002h-.053c-.4.624-.997 1.166-1.794 1.625-.798.46-1.69.69-2.678.69-.832 0-1.582-.127-2.25-.378a4.993 4.993 0 0 1-1.728-1.08 4.775 4.775 0 0 1-1.118-1.663c-.26-.64-.39-1.352-.39-2.132zm1.82-.13c0 .555.08 1.066.246 1.534a3.452 3.452 0 0 0 1.937 2.067c.468.198 1.014.298 1.638.298.763 0 1.474-.156 2.133-.468a5.32 5.32 0 0 0 1.716-1.287 6.238 6.238 0 0 0 1.56-4.173c0-.572-.092-1.096-.274-1.573a3.61 3.61 0 0 0-.793-1.25 3.514 3.514 0 0 0-1.248-.818 4.373 4.373 0 0 0-1.612-.286c-.798 0-1.52.156-2.17.468a5.16 5.16 0 0 0-1.678 1.274 5.698 5.698 0 0 0-1.08 1.885 7.007 7.007 0 0 0-.376 2.327zm27.214-5.642h-2.86L428.102 110h-1.742l1.872-10.712h-2.574l.286-1.456h2.522l.572-3.302c.104-.607.268-1.183.494-1.73a4.82 4.82 0 0 1 .897-1.43 4.2 4.2 0 0 1 1.338-.974c.52-.243 1.126-.364 1.82-.364.225 0 .46.013.702.04.242.025.485.073.728.142l-.416 1.534a4.445 4.445 0 0 0-1.222-.156c-.416 0-.776.078-1.08.234a2.052 2.052 0 0 0-.753.663c-.2.285-.364.62-.494 1s-.23.79-.3 1.222l-.545 3.12h2.912l-.286 1.456zM435.226 110h-1.742l2.158-12.168h1.742L435.226 110zm3.198-16.874c0 .347-.117.64-.35.884a1.16 1.16 0 0 1-.872.364c-.33 0-.61-.104-.845-.312-.234-.208-.35-.494-.35-.858s.124-.667.376-.91c.25-.243.54-.364.87-.364.33 0 .607.108.833.325.225.217.338.507.338.87zm2.947 11.258c-.016.104-.03.204-.038.3a3.942 3.942 0 0 0 .286 1.833 3.73 3.73 0 0 0 2.08 2.027c.475.19.99.286 1.545.286.954 0 1.786-.212 2.496-.637.712-.425 1.284-.923 1.717-1.495l1.092 1.04c-.71.85-1.535 1.49-2.47 1.924a7.03 7.03 0 0 1-2.99.65c-.78 0-1.51-.12-2.185-.364a5.154 5.154 0 0 1-1.755-1.04 4.785 4.785 0 0 1-1.17-1.677c-.286-.666-.43-1.425-.43-2.274 0-.988.183-1.933.547-2.834.364-.9.863-1.69 1.495-2.366a7.346 7.346 0 0 1 2.236-1.625 6.374 6.374 0 0 1 2.77-.61c1.663 0 2.924.442 3.782 1.326.858.884 1.287 2.028 1.287 3.432 0 .208-.017.524-.052.95a7.2 7.2 0 0 1-.182 1.156H441.37zm8.503-1.3c.018-.14.03-.29.04-.455.008-.166.012-.317.012-.456 0-.936-.286-1.703-.858-2.3-.572-.6-1.412-.898-2.522-.898-.64 0-1.235.108-1.78.325a4.82 4.82 0 0 0-1.457.898 5.63 5.63 0 0 0-1.08 1.313 5.237 5.237 0 0 0-.623 1.574h8.268zm5.912 6.916h-1.768l3.458-19.656h1.768L455.785 110zm4.325-4.94c0-1.04.178-2.02.533-2.938a7.214 7.214 0 0 1 1.495-2.392 7.234 7.234 0 0 1 2.275-1.612 6.787 6.787 0 0 1 2.847-.598c.884 0 1.712.2 2.483.598.77.4 1.356.988 1.755 1.768h.052l1.69-9.542h1.742L471.498 110h-1.742l.364-2.002h-.052c-.4.624-.997 1.166-1.794 1.625-.797.46-1.69.69-2.678.69-.832 0-1.582-.127-2.25-.378a4.993 4.993 0 0 1-1.728-1.08 4.775 4.775 0 0 1-1.118-1.663c-.26-.64-.39-1.352-.39-2.132zm1.82-.13c0 .555.082 1.066.247 1.534a3.452 3.452 0 0 0 1.937 2.067c.468.198 1.014.298 1.638.298.763 0 1.473-.156 2.132-.468a5.32 5.32 0 0 0 1.716-1.287 6.238 6.238 0 0 0 1.56-4.173c0-.572-.09-1.096-.273-1.573a3.61 3.61 0 0 0-.793-1.25 3.514 3.514 0 0 0-1.248-.818 4.373 4.373 0 0 0-1.612-.286c-.797 0-1.52.156-2.17.468a5.16 5.16 0 0 0-1.678 1.274 5.698 5.698 0 0 0-1.08 1.885 7.007 7.007 0 0 0-.376 2.327z" fill="#3C8ED7"/><path d="M.5 30H247M336.5 30H583" stroke="#BBDAF3" stroke-width="2" stroke-linecap="square"/><circle stroke="#BBDAF3" stroke-width="2" cx="291.5" cy="29.5" r="29.5"/><path d="M284.24 36.342c-.938 0-1.79-.136-2.557-.408a5.6 5.6 0 0 1-1.966-1.17 5.193 5.193 0 0 1-1.263-1.833c-.298-.714-.447-1.515-.447-2.402 0-1.153.2-2.232.6-3.24.398-1.007.948-1.887 1.65-2.64a7.83 7.83 0 0 1 2.48-1.787c.95-.436 1.983-.654 3.098-.654.912 0 1.748.136 2.508.41.76.27 1.412.66 1.957 1.167a5.213 5.213 0 0 1 1.263 1.824c.298.71.447 1.507.447 2.394a9.043 9.043 0 0 1-.58 3.25 8.12 8.12 0 0 1-1.624 2.65 7.72 7.72 0 0 1-2.47 1.787c-.95.437-1.982.655-3.097.655zm5.832-8.17c0-.608-.095-1.175-.285-1.7a4.064 4.064 0 0 0-.836-1.388c-.366-.4-.82-.712-1.358-.94-.538-.228-1.155-.342-1.852-.342-.874 0-1.67.187-2.385.56a5.876 5.876 0 0 0-1.833 1.483 6.737 6.737 0 0 0-1.168 2.1 7.315 7.315 0 0 0-.41 2.412c0 .595.096 1.16.286 1.69.19.533.465.998.827 1.398.36.4.81.712 1.35.94.537.228 1.16.342 1.87.342.887 0 1.688-.184 2.404-.55a5.655 5.655 0 0 0 1.825-1.474c.5-.614.886-1.314 1.16-2.1a7.37 7.37 0 0 0 .407-2.43zm4.91 7.828h-1.844l2.375-13.452h3.82c.658 0 1.26.073 1.804.22a4.12 4.12 0 0 1 1.396.645c.387.285.684.633.893 1.044.21.412.314.89.314 1.435 0 .583-.095 1.096-.285 1.54a3.55 3.55 0 0 1-.78 1.15 3.96 3.96 0 0 1-1.177.787 6.09 6.09 0 0 1-1.5.436L302.865 36h-2.09l-2.68-6.004h-2.07L294.98 36zm1.31-7.543h2.07c.482 0 .935-.038 1.36-.114a3.284 3.284 0 0 0 1.1-.39 2.13 2.13 0 0 0 .742-.72c.184-.3.276-.676.276-1.132 0-.708-.25-1.215-.75-1.52-.5-.303-1.182-.455-2.043-.455h-1.976l-.778 4.332z" fill="#3C8ED7"/></g><g transform="translate(220 131)"><path d="M185.11 17.088a8.65 8.65 0 0 1-1.273 1.313 8.18 8.18 0 0 1-1.65 1.067 9.995 9.995 0 0 1-2.03.728c-.735.182-1.537.273-2.404.273-1.23 0-2.353-.19-3.367-.572-1.014-.38-1.885-.92-2.613-1.612a7.153 7.153 0 0 1-1.69-2.496c-.398-.97-.598-2.045-.598-3.224 0-1.595.286-3.085.858-4.472a11.437 11.437 0 0 1 2.353-3.627 11.158 11.158 0 0 1 3.497-2.444 10.37 10.37 0 0 1 4.29-.896c.676 0 1.33.07 1.963.208.633.14 1.218.334 1.755.585.54.25 1.02.56 1.444.923.425.364.767.77 1.027 1.222l-1.69 1.118a3.61 3.61 0 0 0-.61-.884 4.474 4.474 0 0 0-.975-.793c-.38-.234-.82-.42-1.313-.56a6.104 6.104 0 0 0-1.65-.207c-1.318 0-2.527.273-3.628.82a9.186 9.186 0 0 0-2.834 2.157 9.955 9.955 0 0 0-1.846 3.08 10.006 10.006 0 0 0-.663 3.59c0 .9.14 1.745.417 2.534.278.79.69 1.473 1.235 2.054a5.895 5.895 0 0 0 2.002 1.38c.79.337 1.703.506 2.743.506 1.11 0 2.167-.22 3.172-.663 1.005-.442 1.906-1.14 2.703-2.093l1.378.988zm3.833-6.578c.07-.33.143-.754.22-1.274.08-.52.135-.988.17-1.404h1.664c-.035.33-.078.693-.13 1.092-.052.4-.104.728-.156.988h.053a5.54 5.54 0 0 1 1.716-1.73c.692-.44 1.472-.662 2.34-.662.224 0 .424.01.597.026.173.017.355.052.546.104l-.416 1.664a2.474 2.474 0 0 0-.48-.104 4.873 4.873 0 0 0-.716-.052 3.81 3.81 0 0 0-1.377.26c-.45.173-.862.446-1.235.82-.373.372-.702.848-.988 1.43-.286.58-.498 1.277-.637 2.092L189.02 20h-1.74l1.663-9.49zm8.485 3.874c-.017.104-.03.204-.04.3a3.942 3.942 0 0 0 .286 1.833 3.73 3.73 0 0 0 2.08 2.027c.478.19.994.286 1.548.286.954 0 1.786-.212 2.496-.637.71-.425 1.283-.923 1.716-1.495l1.092 1.04c-.71.85-1.534 1.49-2.47 1.924a7.03 7.03 0 0 1-2.99.65c-.78 0-1.508-.12-2.184-.364a5.154 5.154 0 0 1-1.755-1.04 4.785 4.785 0 0 1-1.17-1.677c-.286-.666-.43-1.425-.43-2.274 0-.988.183-1.933.547-2.834.364-.9.863-1.69 1.495-2.366a7.346 7.346 0 0 1 2.235-1.625 6.374 6.374 0 0 1 2.77-.61c1.663 0 2.924.442 3.782 1.326.858.884 1.287 2.028 1.287 3.432 0 .208-.017.524-.052.95a7.2 7.2 0 0 1-.182 1.156h-10.062zm8.502-1.3c.018-.14.03-.29.04-.455.008-.166.012-.317.012-.456 0-.936-.286-1.703-.858-2.3-.572-.6-1.412-.898-2.522-.898-.64 0-1.235.108-1.78.325a4.82 4.82 0 0 0-1.457.898 5.63 5.63 0 0 0-1.08 1.313 5.237 5.237 0 0 0-.623 1.574h8.268zm12.958-.546c.052-.295.086-.524.104-.69a4.37 4.37 0 0 0 .026-.454c0-.884-.252-1.508-.754-1.872-.503-.364-1.205-.546-2.106-.546-.728 0-1.43.143-2.106.43-.676.285-1.24.627-1.69 1.026l-.78-1.17c.59-.52 1.317-.94 2.184-1.26a7.38 7.38 0 0 1 2.574-.482 6.89 6.89 0 0 1 1.65.195c.53.13.99.338 1.38.624.39.285.7.65.935 1.09.234.443.35.976.35 1.6 0 .156-.008.368-.025.637-.018.27-.044.49-.078.663l-.884 4.94c-.087.468-.156.953-.208 1.456-.052.503-.078.927-.078 1.274h-1.56a12.926 12.926 0 0 1 .156-1.976h-.052c-.347.4-.694.74-1.04 1.027a5.032 5.032 0 0 1-1.08.69c-.372.173-.77.3-1.195.377a7.713 7.713 0 0 1-1.39.117c-.416 0-.84-.052-1.274-.156a3.404 3.404 0 0 1-1.183-.533 3.092 3.092 0 0 1-.884-.975c-.235-.4-.352-.893-.352-1.482 0-.97.277-1.755.832-2.353.554-.598 1.278-1.057 2.17-1.378.893-.32 1.894-.537 3.004-.65 1.11-.113 2.227-.17 3.354-.17zm-.65 1.326c-.78 0-1.578.04-2.392.117a10.41 10.41 0 0 0-2.223.443c-.668.217-1.214.52-1.638.91-.425.39-.637.906-.637 1.547 0 .38.07.698.208.95.138.25.325.45.56.597.233.147.5.25.805.312.304.06.612.09.924.09a4.58 4.58 0 0 0 1.716-.312c.52-.208.98-.494 1.378-.858.398-.364.728-.784.988-1.26.26-.478.442-.985.546-1.522l.182-1.014h-.416zm11.84-4.576h-3.303l-1.274 7.124c-.05.312-.077.59-.077.832 0 .572.14.953.416 1.144.277.19.64.286 1.09.286.244 0 .513-.035.807-.104.295-.07.52-.165.676-.286l-.208 1.508c-.225.12-.515.212-.87.273a6.72 6.72 0 0 1-1.132.09c-.294 0-.593-.034-.897-.103a2.265 2.265 0 0 1-.832-.377 2.11 2.11 0 0 1-.624-.74c-.164-.313-.247-.712-.247-1.197 0-.243.026-.52.078-.832l1.353-7.618h-2.522l.287-1.456h2.47l.598-3.432h1.742l-.598 3.432h3.353l-.286 1.456zm2.453 5.096c-.017.104-.03.204-.038.3a3.942 3.942 0 0 0 .286 1.833 3.73 3.73 0 0 0 2.08 2.027c.474.19.99.286 1.545.286.953 0 1.785-.212 2.496-.637.71-.425 1.283-.923 1.717-1.495l1.092 1.04c-.712.85-1.535 1.49-2.47 1.924a7.03 7.03 0 0 1-2.99.65c-.78 0-1.51-.12-2.185-.364a5.154 5.154 0 0 1-1.755-1.04 4.785 4.785 0 0 1-1.17-1.677c-.286-.666-.43-1.425-.43-2.274 0-.988.183-1.933.547-2.834.364-.9.862-1.69 1.495-2.366a7.346 7.346 0 0 1 2.236-1.625 6.374 6.374 0 0 1 2.77-.61c1.663 0 2.924.442 3.782 1.326.858.884 1.287 2.028 1.287 3.432 0 .208-.018.524-.052.95a7.2 7.2 0 0 1-.182 1.156H232.53zm8.503-1.3c.017-.14.03-.29.04-.455.007-.166.012-.317.012-.456 0-.936-.286-1.703-.858-2.3-.572-.6-1.413-.898-2.522-.898-.642 0-1.235.108-1.78.325a4.82 4.82 0 0 0-1.457.898 5.63 5.63 0 0 0-1.08 1.313 5.237 5.237 0 0 0-.623 1.574h8.268zm13.98-5.252c-.034.33-.077.693-.13 1.092-.05.4-.103.728-.155.988h.052a5.147 5.147 0 0 1 1.807-1.755 4.637 4.637 0 0 1 2.353-.637c1.317 0 2.344.334 3.08 1 .737.668 1.106 1.574 1.106 2.718 0 .208-.013.416-.04.624a39.06 39.06 0 0 1-.09.676L261.67 20h-1.742l1.196-6.734a8.08 8.08 0 0 0 .156-1.534c0-.85-.2-1.52-.598-2.015-.4-.494-1.1-.74-2.106-.74-.468 0-.936.094-1.404.285a4.08 4.08 0 0 0-1.313.884c-.41.4-.768.897-1.08 1.495-.312.6-.538 1.305-.676 2.12L253.012 20h-1.742l1.664-9.49c.07-.33.143-.754.22-1.274.08-.52.135-.988.17-1.404h1.69zm12.672 6.552c-.017.104-.03.204-.04.3a3.942 3.942 0 0 0 .286 1.833 3.73 3.73 0 0 0 2.08 2.027c.48.19.994.286 1.55.286.952 0 1.784-.212 2.495-.637.71-.425 1.283-.923 1.716-1.495l1.093 1.04c-.71.85-1.534 1.49-2.47 1.924a7.03 7.03 0 0 1-2.99.65c-.78 0-1.508-.12-2.184-.364a5.154 5.154 0 0 1-1.756-1.04 4.785 4.785 0 0 1-1.17-1.677c-.286-.666-.43-1.425-.43-2.274 0-.988.183-1.933.547-2.834.365-.9.863-1.69 1.496-2.366a7.346 7.346 0 0 1 2.236-1.625 6.374 6.374 0 0 1 2.77-.61c1.663 0 2.924.442 3.782 1.326.858.884 1.287 2.028 1.287 3.432 0 .208-.016.524-.05.95a7.2 7.2 0 0 1-.183 1.156h-10.062zm8.502-1.3c.017-.14.03-.29.04-.455.008-.166.012-.317.012-.456 0-.936-.287-1.703-.86-2.3-.57-.6-1.412-.898-2.52-.898-.642 0-1.236.108-1.782.325a4.82 4.82 0 0 0-1.456.898 5.63 5.63 0 0 0-1.08 1.313 5.237 5.237 0 0 0-.623 1.574h8.267zm6.328-5.252l.832 9.88h.052l5.147-9.88h1.664l1.43 9.88h.08l4.86-9.88h1.873L292.24 20h-1.873l-1.378-9.854h-.053L283.867 20h-1.846l-1.325-12.168h1.82zm29.632 1.456h-2.86L307.415 20h-1.742l1.872-10.712h-2.574l.287-1.456h2.522l.57-3.302c.105-.607.27-1.183.495-1.73a4.82 4.82 0 0 1 .897-1.43 4.2 4.2 0 0 1 1.34-.974c.52-.243 1.126-.364 1.82-.364.225 0 .46.013.7.04.244.025.487.073.73.142l-.417 1.534a4.445 4.445 0 0 0-1.222-.156c-.416 0-.775.078-1.08.234a2.052 2.052 0 0 0-.753.663c-.2.285-.364.62-.494 1s-.23.79-.3 1.222l-.545 3.12h2.913l-.286 1.456zm5.86 11.024c-.815 0-1.57-.13-2.262-.39a5.328 5.328 0 0 1-1.78-1.08 4.828 4.828 0 0 1-1.158-1.663 5.41 5.41 0 0 1-.416-2.146 7.9 7.9 0 0 1 .534-2.9 7.395 7.395 0 0 1 1.495-2.39 7.095 7.095 0 0 1 2.287-1.626c.884-.4 1.855-.598 2.912-.598.83 0 1.59.126 2.274.377.685.25 1.274.61 1.768 1.08.494.467.88 1.022 1.157 1.663.276.64.415 1.352.415 2.132 0 1.04-.178 2.02-.533 2.938a7.214 7.214 0 0 1-1.495 2.392 7.193 7.193 0 0 1-2.288 1.612c-.885.4-1.856.598-2.913.598zm5.408-7.436c0-.555-.087-1.07-.26-1.547a3.418 3.418 0 0 0-.767-1.236 3.62 3.62 0 0 0-1.235-.82c-.485-.198-1.03-.298-1.638-.298-.763 0-1.465.16-2.106.48-.642.322-1.197.755-1.665 1.3a6.45 6.45 0 0 0-1.508 4.173c0 .556.087 1.07.26 1.548.173.477.43.888.767 1.235.338.347.745.62 1.222.82.477.198 1.018.298 1.625.298.78 0 1.496-.16 2.146-.48.65-.322 1.21-.75 1.677-1.288a5.882 5.882 0 0 0 1.092-1.885c.26-.72.39-1.486.39-2.3zm5.833-2.366c.07-.33.143-.754.22-1.274.08-.52.136-.988.17-1.404h1.664c-.034.33-.078.693-.13 1.092-.052.4-.104.728-.156.988h.052a5.54 5.54 0 0 1 1.716-1.73c.694-.44 1.474-.662 2.34-.662.226 0 .425.01.598.026.174.017.356.052.546.104l-.416 1.664a2.474 2.474 0 0 0-.48-.104 4.873 4.873 0 0 0-.716-.052 3.81 3.81 0 0 0-1.378.26c-.45.173-.862.446-1.235.82-.372.372-.702.848-.988 1.43-.286.58-.498 1.277-.637 2.092L329.326 20h-1.742l1.664-9.49zm22.422-2.99c1.317 0 2.344.334 3.08 1 .737.668 1.106 1.574 1.106 2.718 0 .208-.013.416-.04.624a39.06 39.06 0 0 1-.09.676L354.4 20h-1.742l1.196-6.734a8.08 8.08 0 0 0 .156-1.534c0-.85-.2-1.52-.598-2.015-.4-.494-1.1-.74-2.106-.74-.642 0-1.192.13-1.65.39-.46.26-.85.606-1.17 1.04-.322.432-.573.918-.755 1.455a11.708 11.708 0 0 0-.428 1.664L346.158 20h-1.742l1.274-7.072a8.91 8.91 0 0 0 .156-1.586c0-.728-.178-1.304-.533-1.73-.356-.424-.984-.636-1.885-.636-.416 0-.85.095-1.3.286a4.03 4.03 0 0 0-1.274.884c-.4.4-.754.897-1.066 1.495-.312.6-.538 1.305-.676 2.12L338.02 20h-1.742l1.664-9.49c.07-.33.143-.754.22-1.274.08-.52.135-.988.17-1.404h1.664c-.035.33-.078.693-.13 1.092-.052.4-.104.728-.156.988h.052c.502-.745 1.11-1.33 1.82-1.755.71-.425 1.508-.637 2.392-.637.33 0 .67.035 1.027.104.356.07.694.204 1.015.403.32.2.602.464.845.793.242.33.416.754.52 1.274.468-.832 1.066-1.47 1.794-1.91.728-.443 1.56-.664 2.496-.664zm20.143 1.768h-2.86L367.08 20h-1.74l1.87-10.712h-2.573l.286-1.456h2.522l.572-3.302c.104-.607.268-1.183.494-1.73a4.82 4.82 0 0 1 .898-1.43 4.2 4.2 0 0 1 1.34-.974c.52-.243 1.125-.364 1.82-.364.224 0 .458.013.7.04.243.025.486.073.73.142l-.417 1.534a4.445 4.445 0 0 0-1.22-.156c-.417 0-.777.078-1.08.234a2.052 2.052 0 0 0-.754.663c-.2.285-.364.62-.494 1s-.23.79-.3 1.222l-.545 3.12h2.912l-.287 1.456zM374.205 20h-1.742l2.158-12.168h1.743L374.205 20zm3.198-16.874c0 .347-.117.64-.35.884a1.16 1.16 0 0 1-.872.364c-.33 0-.61-.104-.844-.312-.234-.208-.35-.494-.35-.858s.124-.667.376-.91c.25-.243.54-.364.87-.364.33 0 .607.108.833.325.225.217.338.507.338.87zm2.947 11.258c-.017.104-.03.204-.04.3a3.942 3.942 0 0 0 .286 1.833 3.73 3.73 0 0 0 2.08 2.027c.478.19.994.286 1.548.286.954 0 1.786-.212 2.496-.637.71-.425 1.283-.923 1.716-1.495l1.092 1.04c-.71.85-1.534 1.49-2.47 1.924a7.03 7.03 0 0 1-2.99.65c-.78 0-1.508-.12-2.184-.364a5.154 5.154 0 0 1-1.755-1.04 4.785 4.785 0 0 1-1.17-1.677c-.287-.666-.43-1.425-.43-2.274 0-.988.182-1.933.546-2.834.364-.9.863-1.69 1.495-2.366a7.346 7.346 0 0 1 2.237-1.625 6.374 6.374 0 0 1 2.77-.61c1.663 0 2.924.442 3.782 1.326.857.884 1.286 2.028 1.286 3.432 0 .208-.017.524-.052.95a7.2 7.2 0 0 1-.182 1.156H380.35zm8.502-1.3c.018-.14.03-.29.04-.455.008-.166.012-.317.012-.456 0-.936-.286-1.703-.858-2.3-.572-.6-1.412-.898-2.522-.898-.64 0-1.235.108-1.78.325a4.82 4.82 0 0 0-1.457.898 5.63 5.63 0 0 0-1.08 1.313 5.237 5.237 0 0 0-.623 1.574h8.268zM394.764 20h-1.768L396.454.344h1.768L394.764 20zm4.325-4.94c0-1.04.177-2.02.532-2.938a7.214 7.214 0 0 1 1.495-2.392 7.234 7.234 0 0 1 2.275-1.612 6.787 6.787 0 0 1 2.847-.598c.883 0 1.71.2 2.482.598.77.4 1.356.988 1.755 1.768h.052l1.69-9.542h1.74L410.478 20h-1.742l.364-2.002h-.053c-.4.624-.997 1.166-1.794 1.625-.797.46-1.69.69-2.678.69-.832 0-1.582-.127-2.25-.378a4.993 4.993 0 0 1-1.728-1.08 4.775 4.775 0 0 1-1.118-1.663c-.26-.64-.39-1.352-.39-2.132zm1.82-.13c0 .555.08 1.066.246 1.534a3.452 3.452 0 0 0 1.937 2.067c.468.198 1.014.298 1.638.298.764 0 1.474-.156 2.133-.468a5.32 5.32 0 0 0 1.716-1.287 6.238 6.238 0 0 0 1.56-4.173c0-.572-.092-1.096-.274-1.573a3.61 3.61 0 0 0-.793-1.25 3.514 3.514 0 0 0-1.248-.818 4.373 4.373 0 0 0-1.612-.286c-.797 0-1.52.156-2.17.468a5.16 5.16 0 0 0-1.678 1.274 5.698 5.698 0 0 0-1.08 1.885 7.007 7.007 0 0 0-.376 2.327z" fill="#3C8ED7"/><path d="M283.59 79.408a6.56 6.56 0 0 0 .065-.424c.01-.1.016-.195.016-.28 0-.544-.153-.928-.463-1.152-.31-.224-.74-.336-1.296-.336-.447 0-.88.088-1.295.264a3.776 3.776 0 0 0-1.04.632l-.48-.72c.363-.32.81-.58 1.344-.776a4.542 4.542 0 0 1 1.583-.296c.352 0 .69.04 1.016.12.325.08.607.208.847.384.24.176.432.4.576.672.144.272.216.6.216.984 0 .096-.006.227-.017.392-.01.165-.026.3-.048.408l-.544 3.04c-.052.288-.095.587-.127.896-.032.31-.048.57-.048.784h-.96a7.954 7.954 0 0 1 .096-1.216H283a5.467 5.467 0 0 1-.64.632 3.097 3.097 0 0 1-.665.424 3.04 3.04 0 0 1-.736.232c-.262.048-.547.072-.857.072-.256 0-.517-.032-.784-.096a2.095 2.095 0 0 1-.73-.328c-.217-.155-.4-.355-.543-.6-.144-.245-.216-.55-.216-.912 0-.597.172-1.08.513-1.448.342-.368.787-.65 1.336-.848a7.79 7.79 0 0 1 1.847-.4c.683-.07 1.37-.104 2.064-.104zm-.4.816c-.48 0-.97.024-1.47.072-.502.048-.958.14-1.37.272-.41.133-.745.32-1.007.56-.26.24-.392.557-.392.952 0 .235.044.43.13.584.085.155.2.277.343.368.144.09.31.155.496.192.186.037.375.056.567.056a2.82 2.82 0 0 0 1.056-.192c.32-.128.603-.304.848-.528.247-.224.45-.483.61-.776a3.22 3.22 0 0 0 .335-.936l.112-.624h-.256zm5.48-3.712c-.022.203-.05.427-.08.672a9.392 9.392 0 0 1-.097.608h.032c.288-.46.66-.82 1.112-1.08.453-.26.936-.392 1.448-.392.81 0 1.443.205 1.896.616.454.41.68.968.68 1.672 0 .128-.007.256-.023.384s-.035.267-.056.416L292.766 84h-1.072l.736-4.144c.063-.33.095-.645.095-.944 0-.523-.123-.936-.368-1.24-.245-.304-.677-.456-1.296-.456-.287 0-.575.06-.863.176a2.51 2.51 0 0 0-.808.544 3.61 3.61 0 0 0-.665.92c-.192.368-.33.803-.416 1.304l-.673 3.84h-1.072l1.024-5.84c.042-.203.087-.464.135-.784.048-.32.083-.608.104-.864h1.04zm6.677 4.448c0-.64.11-1.243.328-1.808a4.44 4.44 0 0 1 .92-1.472c.395-.416.86-.747 1.4-.992a4.176 4.176 0 0 1 1.752-.368 3.28 3.28 0 0 1 1.528.368 2.45 2.45 0 0 1 1.08 1.088h.032l1.04-5.872h1.072L302.354 84h-1.072l.224-1.232h-.032c-.245.384-.613.717-1.104 1a3.24 3.24 0 0 1-1.647.424c-.512 0-.973-.077-1.384-.232a3.073 3.073 0 0 1-1.065-.664c-.3-.288-.528-.63-.688-1.024a3.462 3.462 0 0 1-.24-1.312zm1.12-.08c0 .34.05.656.152.944a2.124 2.124 0 0 0 1.192 1.272c.287.123.623.184 1.007.184.468 0 .906-.096 1.31-.288a3.275 3.275 0 0 0 1.057-.792 3.818 3.818 0 0 0 .96-2.568c0-.352-.056-.675-.168-.968a2.163 2.163 0 0 0-1.256-1.272 2.69 2.69 0 0 0-.993-.176c-.49 0-.935.096-1.335.288-.4.192-.744.453-1.032.784-.288.33-.51.717-.664 1.16-.156.443-.233.92-.233 1.432z" fill="#A3A3A3"/><g transform="translate(0 59)"><rect stroke="#E0E0E0" stroke-width="2" fill="#EFEFEF" width="246" height="40" rx="6"/><path d="M24.536 24.32h.032v-9.648h1.152V26h-1.44l-6.592-9.744h-.032V26h-1.152V14.672h1.44l6.592 9.648zm8.848-3.152c0-.65-.17-1.136-.512-1.456-.34-.32-.837-.48-1.488-.48-.448 0-.864.08-1.248.24-.384.16-.71.373-.976.64l-.608-.72c.31-.31.717-.565 1.224-.768.507-.203 1.08-.304 1.72-.304.405 0 .784.056 1.136.168.352.112.66.28.928.504.267.224.475.507.624.848.15.34.224.74.224 1.2v3.28c0 .288.01.587.032.896.02.31.053.57.096.784h-.976c-.032-.18-.06-.38-.08-.592a6.27 6.27 0 0 1-.032-.624h-.032c-.34.5-.728.86-1.16 1.08-.432.22-.952.328-1.56.328-.288 0-.584-.04-.888-.12-.304-.08-.58-.21-.832-.392-.25-.18-.46-.416-.624-.704-.165-.288-.248-.64-.248-1.056 0-.576.147-1.032.44-1.368.293-.336.685-.587 1.176-.752a6.932 6.932 0 0 1 1.688-.32 26.215 26.215 0 0 1 1.976-.072v-.24zm-.32 1.088c-.448 0-.9.02-1.352.056a5.897 5.897 0 0 0-1.232.224 2.33 2.33 0 0 0-.904.488c-.235.213-.352.496-.352.848 0 .267.05.49.152.672.1.18.237.328.408.44.17.112.36.192.568.24.208.048.42.072.632.072.384 0 .725-.067 1.024-.2.3-.133.55-.315.752-.544.203-.23.357-.493.464-.792.107-.3.16-.613.16-.944v-.56h-.32zm5.216-2.464c.213-.437.54-.792.984-1.064a2.77 2.77 0 0 1 1.48-.408c.203 0 .413.02.632.064.22.043.432.125.64.248.208.123.4.285.576.488.176.203.328.464.456.784.256-.512.605-.904 1.048-1.176.443-.272.968-.408 1.576-.408.95 0 1.66.283 2.136.848.475.565.712 1.312.712 2.24V26h-1.088v-4.144c0-.79-.147-1.424-.44-1.904-.293-.48-.792-.72-1.496-.72-.395 0-.728.08-1 .24-.272.16-.49.37-.656.632a2.8 2.8 0 0 0-.36.888c-.075.33-.112.672-.112 1.024V26H42.28v-4.368c0-.363-.027-.693-.08-.992a2.07 2.07 0 0 0-.28-.76 1.31 1.31 0 0 0-.552-.48c-.235-.112-.533-.168-.896-.168-.256 0-.515.06-.776.176-.26.117-.496.296-.704.536a2.76 2.76 0 0 0-.504.912c-.128.368-.192.803-.192 1.304V26h-1.088v-5.84a24.472 24.472 0 0 0-.064-1.648h1.04a14.486 14.486 0 0 1 .064 1.28h.032zm18.768 1.888c-.032-.704-.26-1.288-.68-1.752-.42-.464-1.02-.696-1.8-.696-.363 0-.7.067-1.008.2a2.705 2.705 0 0 0-1.376 1.328c-.14.293-.22.6-.24.92h5.104zm1.104.352v.24c0 .085-.005.176-.016.272h-6.208c.01.373.085.725.224 1.056.14.33.33.62.576.864.245.245.533.44.864.584.33.144.688.216 1.072.216.565 0 1.053-.13 1.464-.392.41-.26.723-.563.936-.904l.816.64c-.448.565-.94.97-1.48 1.216a4.14 4.14 0 0 1-1.736.368c-.555 0-1.07-.1-1.544-.296a3.617 3.617 0 0 1-1.224-.824 3.904 3.904 0 0 1-.808-1.248 4.084 4.084 0 0 1-.296-1.568c0-.565.096-1.088.288-1.568.192-.48.46-.896.8-1.248a3.68 3.68 0 0 1 2.688-1.12c.587 0 1.104.1 1.552.296a3.2 3.2 0 0 1 1.12.8c.3.336.525.728.68 1.176.155.448.232.928.232 1.44zm9.712-2.608h-2.112v4.368c0 .277.027.507.08.688.053.18.13.323.232.424.1.1.22.17.36.208.14.037.288.056.448.056.15 0 .307-.02.472-.064.165-.043.323-.1.472-.176l.048.944a3.22 3.22 0 0 1-.6.168 3.855 3.855 0 0 1-.68.056c-.203 0-.416-.027-.64-.08a1.62 1.62 0 0 1-.624-.304 1.663 1.663 0 0 1-.472-.608c-.123-.256-.184-.592-.184-1.008v-4.672h-1.552v-.912h1.552V16.4h1.088v2.112h2.112v.912zm2.848.32c.203-.437.54-.784 1.008-1.04.47-.256.97-.384 1.504-.384.95 0 1.66.283 2.136.848.475.565.712 1.312.712 2.24V26h-1.088v-4.144c0-.395-.032-.752-.096-1.072a2.244 2.244 0 0 0-.328-.824 1.568 1.568 0 0 0-.624-.536c-.26-.128-.59-.192-.984-.192a2.064 2.064 0 0 0-1.568.712 2.68 2.68 0 0 0-.512.912c-.128.368-.192.803-.192 1.304V26h-1.088V13.904h1.088v5.84h.032zM84.6 21.68c-.032-.704-.26-1.288-.68-1.752-.42-.464-1.02-.696-1.8-.696-.363 0-.7.067-1.008.2a2.705 2.705 0 0 0-1.376 1.328c-.14.293-.22.6-.24.92H84.6zm1.104.352v.24c0 .085-.005.176-.016.272H79.48c.01.373.085.725.224 1.056.14.33.33.62.576.864.245.245.533.44.864.584.33.144.688.216 1.072.216.565 0 1.053-.13 1.464-.392.41-.26.723-.563.936-.904l.816.64c-.448.565-.94.97-1.48 1.216a4.14 4.14 0 0 1-1.736.368c-.555 0-1.07-.1-1.544-.296a3.617 3.617 0 0 1-1.224-.824 3.904 3.904 0 0 1-.808-1.248 4.084 4.084 0 0 1-.296-1.568c0-.565.096-1.088.288-1.568.192-.48.46-.896.8-1.248a3.68 3.68 0 0 1 2.688-1.12c.587 0 1.104.1 1.552.296a3.2 3.2 0 0 1 1.12.8c.3.336.525.728.68 1.176.155.448.232.928.232 1.44zM97.832 26h-1.088v-7.488h1.088V26zm.24-10.368a.71.71 0 0 1-.24.552.773.773 0 0 1-.528.216.773.773 0 0 1-.528-.216.71.71 0 0 1-.24-.552.71.71 0 0 1 .24-.552.773.773 0 0 1 .528-.216c.192 0 .368.072.528.216a.71.71 0 0 1 .24.552zm-2.864 3.792h-1.76V26H92.36v-6.576h-1.568v-.912h1.568v-2.048c0-.853.208-1.525.624-2.016.416-.49 1.056-.736 1.92-.736.14 0 .288.008.448.024.16.016.31.045.448.088l-.192.96a4.178 4.178 0 0 0-.352-.08 2.25 2.25 0 0 0-.4-.032c-.288 0-.525.048-.712.144a1.03 1.03 0 0 0-.432.408c-.1.176-.17.38-.208.616a4.79 4.79 0 0 0-.056.752v1.92h1.76v.912zm11.248 2.256c-.032-.704-.26-1.288-.68-1.752-.42-.464-1.02-.696-1.8-.696-.363 0-.7.067-1.008.2a2.705 2.705 0 0 0-1.376 1.328c-.14.293-.22.6-.24.92h5.104zm1.104.352v.24c0 .085-.005.176-.016.272h-6.208c.01.373.085.725.224 1.056.14.33.33.62.576.864.245.245.533.44.864.584.33.144.688.216 1.072.216.565 0 1.053-.13 1.464-.392.41-.26.723-.563.936-.904l.816.64c-.448.565-.94.97-1.48 1.216a4.14 4.14 0 0 1-1.736.368c-.555 0-1.07-.1-1.544-.296a3.617 3.617 0 0 1-1.224-.824 3.904 3.904 0 0 1-.808-1.248 4.084 4.084 0 0 1-.296-1.568c0-.565.096-1.088.288-1.568.192-.48.46-.896.8-1.248a3.68 3.68 0 0 1 2.688-1.12c.587 0 1.104.1 1.552.296a3.2 3.2 0 0 1 1.12.8c.3.336.525.728.68 1.176.155.448.232.928.232 1.44zM111.016 26h-1.088V13.904h1.088V26zm9.072-1.264c-.32.48-.736.843-1.248 1.088a3.626 3.626 0 0 1-1.584.368c-.587 0-1.117-.1-1.592-.304a3.627 3.627 0 0 1-1.216-.832 3.758 3.758 0 0 1-.784-1.248 4.245 4.245 0 0 1-.28-1.552c0-.555.093-1.072.28-1.552.187-.48.448-.896.784-1.248s.74-.63 1.216-.832a4.016 4.016 0 0 1 1.592-.304c.544 0 1.072.125 1.584.376.512.25.928.62 1.248 1.112h.032v-5.904h1.088V26h-1.088v-1.264h-.032zm-5.552-2.48c0 .416.064.808.192 1.176.128.368.312.688.552.96.24.272.536.485.888.64.352.155.752.232 1.2.232a2.832 2.832 0 0 0 2.064-.864c.256-.267.456-.584.6-.952.144-.368.216-.765.216-1.192 0-.427-.072-.824-.216-1.192a2.956 2.956 0 0 0-.6-.96 2.765 2.765 0 0 0-.912-.64 2.832 2.832 0 0 0-1.152-.232c-.448 0-.848.08-1.2.24-.352.16-.648.376-.888.648s-.424.592-.552.96c-.128.368-.192.76-.192 1.176zm11.68 2.976c0 .224-.08.424-.24.6a.804.804 0 0 1-.624.264.804.804 0 0 1-.624-.264.868.868 0 0 1 0-1.2.804.804 0 0 1 .624-.264c.256 0 .464.088.624.264.16.176.24.376.24.6zm5.328 0c0 .224-.08.424-.24.6a.804.804 0 0 1-.624.264.804.804 0 0 1-.624-.264.868.868 0 0 1 0-1.2.804.804 0 0 1 .624-.264c.256 0 .464.088.624.264.16.176.24.376.24.6zm5.328 0c0 .224-.08.424-.24.6a.804.804 0 0 1-.624.264.804.804 0 0 1-.624-.264.868.868 0 0 1 0-1.2.804.804 0 0 1 .624-.264c.256 0 .464.088.624.264.16.176.24.376.24.6z" fill="#3C8ED7"/></g><g transform="translate(169 471)"><rect stroke="#E0E0E0" stroke-width="2" fill="#EFEFEF" width="246" height="40" rx="6"/><path d="M45.656 24.976h6.064V26h-7.216V14.672h7.024v1.024h-5.872V19.6h5.488v1.008h-5.488v4.368zm9.232-6.464a14.486 14.486 0 0 1 .064 1.28h.032c.213-.437.56-.792 1.04-1.064s.987-.408 1.52-.408c.95 0 1.66.283 2.136.848.475.565.712 1.312.712 2.24V26h-1.088v-4.144c0-.395-.032-.752-.096-1.072a2.244 2.244 0 0 0-.328-.824 1.568 1.568 0 0 0-.624-.536c-.26-.128-.59-.192-.984-.192a2.064 2.064 0 0 0-1.568.712 2.68 2.68 0 0 0-.512.912c-.128.368-.192.803-.192 1.304V26h-1.088v-5.84a24.472 24.472 0 0 0-.064-1.648h1.04zm11.696.912h-2.112v4.368c0 .277.027.507.08.688.053.18.13.323.232.424.1.1.22.17.36.208.14.037.288.056.448.056.15 0 .307-.02.472-.064.165-.043.323-.1.472-.176l.048.944a3.22 3.22 0 0 1-.6.168 3.855 3.855 0 0 1-.68.056c-.203 0-.416-.027-.64-.08a1.62 1.62 0 0 1-.624-.304 1.663 1.663 0 0 1-.472-.608c-.123-.256-.184-.592-.184-1.008v-4.672h-1.552v-.912h1.552V16.4h1.088v2.112h2.112v.912zm7.408 2.256c-.032-.704-.26-1.288-.68-1.752-.42-.464-1.02-.696-1.8-.696-.363 0-.7.067-1.008.2a2.705 2.705 0 0 0-1.376 1.328c-.14.293-.22.6-.24.92h5.104zm1.104.352v.24c0 .085-.005.176-.016.272h-6.208c.01.373.085.725.224 1.056.14.33.33.62.576.864.245.245.533.44.864.584.33.144.688.216 1.072.216.565 0 1.053-.13 1.464-.392.41-.26.723-.563.936-.904l.816.64c-.448.565-.94.97-1.48 1.216a4.14 4.14 0 0 1-1.736.368c-.555 0-1.07-.1-1.544-.296a3.617 3.617 0 0 1-1.224-.824 3.904 3.904 0 0 1-.808-1.248 4.084 4.084 0 0 1-.296-1.568c0-.565.096-1.088.288-1.568.192-.48.46-.896.8-1.248a3.68 3.68 0 0 1 2.688-1.12c.587 0 1.104.1 1.552.296a3.2 3.2 0 0 1 1.12.8c.3.336.525.728.68 1.176.155.448.232.928.232 1.44zm2.336-1.872a24.472 24.472 0 0 0-.064-1.648h1.04a14.486 14.486 0 0 1 .064 1.28h.032c.213-.437.533-.792.96-1.064a2.622 2.622 0 0 1 1.44-.408c.14 0 .264.005.376.016.112.01.227.032.344.064l-.144 1.024a3.164 3.164 0 0 0-.768-.096 2.22 2.22 0 0 0-.832.16c-.267.107-.5.275-.696.504-.197.23-.357.523-.48.88s-.184.787-.184 1.288V26h-1.088v-5.84zM92.984 26h-1.088v-7.488h1.088V26zm.24-10.368a.71.71 0 0 1-.24.552.773.773 0 0 1-.528.216.773.773 0 0 1-.528-.216.71.71 0 0 1-.24-.552.71.71 0 0 1 .24-.552.773.773 0 0 1 .528-.216c.192 0 .368.072.528.216a.71.71 0 0 1 .24.552zm-2.864 3.792H88.6V26h-1.088v-6.576h-1.568v-.912h1.568v-2.048c0-.853.208-1.525.624-2.016.416-.49 1.056-.736 1.92-.736.14 0 .288.008.448.024.16.016.31.045.448.088l-.192.96a4.178 4.178 0 0 0-.352-.08 2.25 2.25 0 0 0-.4-.032c-.288 0-.525.048-.712.144a1.03 1.03 0 0 0-.432.408c-.1.176-.17.38-.208.616a4.79 4.79 0 0 0-.056.752v1.92h1.76v.912zm11.248 2.256c-.032-.704-.26-1.288-.68-1.752-.42-.464-1.02-.696-1.8-.696-.363 0-.7.067-1.008.2a2.705 2.705 0 0 0-1.376 1.328c-.14.293-.22.6-.24.92h5.104zm1.104.352v.24c0 .085-.005.176-.016.272h-6.208c.01.373.085.725.224 1.056.14.33.33.62.576.864.245.245.533.44.864.584.33.144.688.216 1.072.216.565 0 1.053-.13 1.464-.392.41-.26.723-.563.936-.904l.816.64c-.448.565-.94.97-1.48 1.216a4.14 4.14 0 0 1-1.736.368c-.555 0-1.07-.1-1.544-.296a3.617 3.617 0 0 1-1.224-.824 3.904 3.904 0 0 1-.808-1.248 4.084 4.084 0 0 1-.296-1.568c0-.565.096-1.088.288-1.568.192-.48.46-.896.8-1.248a3.68 3.68 0 0 1 2.688-1.12c.587 0 1.104.1 1.552.296a3.2 3.2 0 0 1 1.12.8c.3.336.525.728.68 1.176.155.448.232.928.232 1.44zM106.168 26h-1.088V13.904h1.088V26zm9.072-1.264c-.32.48-.736.843-1.248 1.088a3.626 3.626 0 0 1-1.584.368c-.587 0-1.117-.1-1.592-.304a3.627 3.627 0 0 1-1.216-.832 3.758 3.758 0 0 1-.784-1.248 4.245 4.245 0 0 1-.28-1.552c0-.555.093-1.072.28-1.552.187-.48.448-.896.784-1.248s.74-.63 1.216-.832a4.016 4.016 0 0 1 1.592-.304c.544 0 1.072.125 1.584.376.512.25.928.62 1.248 1.112h.032v-5.904h1.088V26h-1.088v-1.264h-.032zm-5.552-2.48c0 .416.064.808.192 1.176.128.368.312.688.552.96.24.272.536.485.888.64.352.155.752.232 1.2.232a2.832 2.832 0 0 0 2.064-.864c.256-.267.456-.584.6-.952.144-.368.216-.765.216-1.192 0-.427-.072-.824-.216-1.192a2.956 2.956 0 0 0-.6-.96 2.765 2.765 0 0 0-.912-.64 2.832 2.832 0 0 0-1.152-.232c-.448 0-.848.08-1.2.24-.352.16-.648.376-.888.648s-.424.592-.552.96c-.128.368-.192.76-.192 1.176zm14.56-3.744a14.486 14.486 0 0 1 .064 1.28h.032c.213-.437.56-.792 1.04-1.064s.987-.408 1.52-.408c.95 0 1.66.283 2.136.848.475.565.712 1.312.712 2.24V26h-1.088v-4.144c0-.395-.032-.752-.096-1.072a2.244 2.244 0 0 0-.328-.824 1.568 1.568 0 0 0-.624-.536c-.26-.128-.59-.192-.984-.192a2.064 2.064 0 0 0-1.568.712 2.68 2.68 0 0 0-.512.912c-.128.368-.192.803-.192 1.304V26h-1.088v-5.84a24.47 24.47 0 0 0-.064-1.648h1.04zm13.04 2.656c0-.65-.17-1.136-.512-1.456-.34-.32-.837-.48-1.488-.48-.448 0-.864.08-1.248.24-.384.16-.71.373-.976.64l-.608-.72c.31-.31.717-.565 1.224-.768.507-.203 1.08-.304 1.72-.304.405 0 .784.056 1.136.168.352.112.66.28.928.504.267.224.475.507.624.848.15.34.224.74.224 1.2v3.28c0 .288.01.587.032.896.02.31.053.57.096.784h-.976c-.032-.18-.06-.38-.08-.592a6.272 6.272 0 0 1-.032-.624h-.032c-.34.5-.728.86-1.16 1.08-.432.22-.952.328-1.56.328-.288 0-.584-.04-.888-.12-.304-.08-.58-.21-.832-.392-.25-.18-.46-.416-.624-.704-.165-.288-.248-.64-.248-1.056 0-.576.147-1.032.44-1.368.293-.336.685-.587 1.176-.752a6.932 6.932 0 0 1 1.688-.32 26.215 26.215 0 0 1 1.976-.072v-.24zm-.32 1.088c-.448 0-.9.02-1.352.056a5.897 5.897 0 0 0-1.232.224 2.33 2.33 0 0 0-.904.488c-.235.213-.352.496-.352.848 0 .267.05.49.152.672.1.18.237.328.408.44.17.112.36.192.568.24.208.048.42.072.632.072.384 0 .725-.067 1.024-.2.3-.133.55-.315.752-.544.203-.23.357-.493.464-.792.107-.3.16-.613.16-.944v-.56h-.32zm5.216-2.464c.213-.437.54-.792.984-1.064a2.77 2.77 0 0 1 1.48-.408c.203 0 .413.02.632.064.22.043.432.125.64.248.208.123.4.285.576.488.176.203.328.464.456.784.256-.512.605-.904 1.048-1.176.443-.272.968-.408 1.576-.408.95 0 1.66.283 2.136.848.475.565.712 1.312.712 2.24V26h-1.088v-4.144c0-.79-.147-1.424-.44-1.904-.293-.48-.792-.72-1.496-.72-.395 0-.728.08-1 .24-.272.16-.49.37-.656.632a2.8 2.8 0 0 0-.36.888c-.075.33-.112.672-.112 1.024V26h-1.088v-4.368c0-.363-.027-.693-.08-.992a2.07 2.07 0 0 0-.28-.76 1.31 1.31 0 0 0-.552-.48c-.235-.112-.533-.168-.896-.168-.256 0-.515.06-.776.176-.26.117-.496.296-.704.536a2.76 2.76 0 0 0-.504.912c-.128.368-.192.803-.192 1.304V26h-1.088v-5.84a24.47 24.47 0 0 0-.064-1.648h1.04a14.486 14.486 0 0 1 .064 1.28h.032zm18.768 1.888c-.032-.704-.26-1.288-.68-1.752-.42-.464-1.02-.696-1.8-.696-.363 0-.7.067-1.008.2a2.705 2.705 0 0 0-1.376 1.328c-.14.293-.22.6-.24.92h5.104zm1.104.352v.24c0 .085-.005.176-.016.272h-6.208c.01.373.085.725.224 1.056.14.33.33.62.576.864.245.245.533.44.864.584.33.144.688.216 1.072.216.565 0 1.053-.13 1.464-.392.41-.26.723-.563.936-.904l.816.64c-.448.565-.94.97-1.48 1.216a4.14 4.14 0 0 1-1.736.368c-.555 0-1.07-.1-1.544-.296a3.617 3.617 0 0 1-1.224-.824 3.904 3.904 0 0 1-.808-1.248 4.084 4.084 0 0 1-.296-1.568c0-.565.096-1.088.288-1.568.192-.48.46-.896.8-1.248a3.68 3.68 0 0 1 2.688-1.12c.587 0 1.104.1 1.552.296a3.2 3.2 0 0 1 1.12.8c.3.336.525.728.68 1.176.155.448.232.928.232 1.44zm4.432 3.2c0 .224-.08.424-.24.6a.804.804 0 0 1-.624.264.804.804 0 0 1-.624-.264.868.868 0 0 1 0-1.2.804.804 0 0 1 .624-.264c.256 0 .464.088.624.264.16.176.24.376.24.6zm5.328 0c0 .224-.08.424-.24.6a.804.804 0 0 1-.624.264.804.804 0 0 1-.624-.264.868.868 0 0 1 0-1.2.804.804 0 0 1 .624-.264c.256 0 .464.088.624.264.16.176.24.376.24.6zm5.328 0c0 .224-.08.424-.24.6a.804.804 0 0 1-.624.264.804.804 0 0 1-.624-.264.868.868 0 0 1 0-1.2.804.804 0 0 1 .624-.264c.256 0 .464.088.624.264.16.176.24.376.24.6z" fill="#3C8ED7"/></g><rect fill="#EFEFEF" y="114" width="583" height="137" rx="6"/><rect fill="#EFEFEF" y="544" width="583" height="137" rx="6"/><path d="M76.856 186h-1.264l4.896-11.328h1.12L86.472 186h-1.28l-1.248-2.976h-5.856L76.856 186zm1.664-4.032h4.992l-2.496-6.016-2.496 6.016zm14.64 7.872h-1.088v-11.328h1.088v1.296h.048c.31-.49.723-.86 1.24-1.112a3.58 3.58 0 0 1 1.576-.376c.587 0 1.117.1 1.592.304.475.203.88.48 1.216.832.336.352.597.768.784 1.248.187.48.28.997.28 1.552s-.093 1.072-.28 1.552c-.187.48-.448.896-.784 1.248s-.74.63-1.216.832a4.016 4.016 0 0 1-1.592.304 3.58 3.58 0 0 1-1.576-.376c-.517-.25-.93-.61-1.24-1.08h-.048v5.104zm5.584-7.584c0-.416-.064-.808-.192-1.176a2.846 2.846 0 0 0-.552-.96 2.603 2.603 0 0 0-.888-.648 2.87 2.87 0 0 0-1.2-.24c-.416 0-.8.077-1.152.232a2.765 2.765 0 0 0-.912.64 2.956 2.956 0 0 0-.6.96 3.242 3.242 0 0 0-.216 1.192c0 .427.072.824.216 1.192.144.368.344.685.6.952a2.824 2.824 0 0 0 2.064.864c.448 0 .848-.077 1.2-.232.352-.155.648-.368.888-.64s.424-.592.552-.96c.128-.368.192-.76.192-1.176zm3.488-2.096a24.47 24.47 0 0 0-.064-1.648h1.04a14.486 14.486 0 0 1 .064 1.28h.032c.213-.437.533-.792.96-1.064a2.622 2.622 0 0 1 1.44-.408c.14 0 .264.005.376.016.112.01.227.032.344.064l-.144 1.024a3.164 3.164 0 0 0-.768-.096 2.22 2.22 0 0 0-.832.16c-.267.107-.5.275-.696.504-.197.23-.357.523-.48.88s-.184.787-.184 1.288V186h-1.088v-5.84zm11.472 1.52c-.032-.704-.26-1.288-.68-1.752-.42-.464-1.02-.696-1.8-.696-.363 0-.7.067-1.008.2a2.705 2.705 0 0 0-1.376 1.328c-.14.293-.22.6-.24.92h5.104zm1.104.352v.24c0 .085-.005.176-.016.272h-6.208c.01.373.085.725.224 1.056.14.33.33.62.576.864.245.245.533.44.864.584.33.144.688.216 1.072.216.565 0 1.053-.13 1.464-.392.41-.26.723-.563.936-.904l.816.64c-.448.565-.94.97-1.48 1.216a4.14 4.14 0 0 1-1.736.368c-.555 0-1.07-.1-1.544-.296a3.617 3.617 0 0 1-1.224-.824 3.904 3.904 0 0 1-.808-1.248 4.084 4.084 0 0 1-.296-1.568c0-.565.096-1.088.288-1.568.192-.48.46-.896.8-1.248a3.68 3.68 0 0 1 2.688-1.12c.587 0 1.104.1 1.552.296a3.2 3.2 0 0 1 1.12.8c.3.336.525.728.68 1.176.155.448.232.928.232 1.44zm5.408 3.968h-1.2l-3.056-7.488h1.216l2.432 6.336h.032l2.448-6.336h1.168l-3.04 7.488zm5.84 0h-1.088v-7.488h1.088V186zm.224-10.368a.71.71 0 0 1-.24.552.773.773 0 0 1-.528.216.773.773 0 0 1-.528-.216.71.71 0 0 1-.24-.552.71.71 0 0 1 .24-.552.773.773 0 0 1 .528-.216c.192 0 .368.072.528.216a.71.71 0 0 1 .24.552zm8.384 6.048c-.032-.704-.26-1.288-.68-1.752-.42-.464-1.02-.696-1.8-.696-.363 0-.7.067-1.008.2a2.705 2.705 0 0 0-1.376 1.328c-.14.293-.22.6-.24.92h5.104zm1.104.352v.24c0 .085-.005.176-.016.272h-6.208c.01.373.085.725.224 1.056.14.33.33.62.576.864.245.245.533.44.864.584.33.144.688.216 1.072.216.565 0 1.053-.13 1.464-.392.41-.26.723-.563.936-.904l.816.64c-.448.565-.94.97-1.48 1.216a4.14 4.14 0 0 1-1.736.368c-.555 0-1.07-.1-1.544-.296a3.617 3.617 0 0 1-1.224-.824 3.904 3.904 0 0 1-.808-1.248 4.084 4.084 0 0 1-.296-1.568c0-.565.096-1.088.288-1.568.192-.48.46-.896.8-1.248a3.68 3.68 0 0 1 2.688-1.12c.587 0 1.104.1 1.552.296a3.2 3.2 0 0 1 1.12.8c.3.336.525.728.68 1.176.155.448.232.928.232 1.44zm2.48-3.52l1.808 6.08h.032l2.016-6.08h1.056l2.048 6.08h.032l1.792-6.08h1.152L145.816 186h-1.184l-2-6.064h-.032L140.632 186h-1.184l-2.368-7.488h1.168zm23.232 3.744c0 .565-.1 1.088-.296 1.568-.197.48-.472.896-.824 1.248a3.734 3.734 0 0 1-1.264.824c-.49.197-1.03.296-1.616.296-.576 0-1.11-.1-1.6-.296a3.734 3.734 0 0 1-1.264-.824 3.772 3.772 0 0 1-.824-1.248 4.084 4.084 0 0 1-.296-1.568c0-.565.1-1.088.296-1.568.197-.48.472-.896.824-1.248a3.734 3.734 0 0 1 1.264-.824 4.25 4.25 0 0 1 1.6-.296c.587 0 1.125.1 1.616.296.49.197.912.472 1.264.824s.627.768.824 1.248c.197.48.296 1.003.296 1.568zm-1.152 0c0-.416-.067-.808-.2-1.176a2.88 2.88 0 0 0-.568-.96 2.688 2.688 0 0 0-.896-.648 2.83 2.83 0 0 0-1.184-.24c-.437 0-.83.08-1.176.24a2.71 2.71 0 0 0-.888.648 2.88 2.88 0 0 0-.568.96c-.133.368-.2.76-.2 1.176 0 .416.067.808.2 1.176.133.368.323.688.568.96.245.272.54.485.888.64.347.155.74.232 1.176.232.437 0 .832-.077 1.184-.232.352-.155.65-.368.896-.64a2.88 2.88 0 0 0 .568-.96c.133-.368.2-.76.2-1.176zm6.656-2.832h-1.76V186h-1.088v-6.576h-1.568v-.912h1.568v-2.048c0-.853.208-1.525.624-2.016.416-.49 1.056-.736 1.92-.736.14 0 .288.008.448.024.16.016.31.045.448.088l-.192.96a4.178 4.178 0 0 0-.352-.08 2.25 2.25 0 0 0-.4-.032c-.288 0-.525.048-.712.144a1.03 1.03 0 0 0-.432.408c-.1.176-.17.38-.208.616a4.79 4.79 0 0 0-.056.752v1.92h1.76v.912zm8.128 5.408h.032l2.32-6.32h1.184l-3.728 9.424c-.224.576-.51 1.037-.856 1.384-.347.347-.845.52-1.496.52-.33 0-.656-.032-.976-.096l.112-.992c.256.085.523.128.8.128.373 0 .667-.115.88-.344.213-.23.4-.557.56-.984l.608-1.568-3.2-7.472h1.216l2.544 6.32zm12.672-2.576c0 .565-.1 1.088-.296 1.568-.197.48-.472.896-.824 1.248a3.734 3.734 0 0 1-1.264.824c-.49.197-1.03.296-1.616.296-.576 0-1.11-.1-1.6-.296a3.734 3.734 0 0 1-1.264-.824 3.772 3.772 0 0 1-.824-1.248 4.084 4.084 0 0 1-.296-1.568c0-.565.1-1.088.296-1.568.197-.48.472-.896.824-1.248a3.734 3.734 0 0 1 1.264-.824 4.25 4.25 0 0 1 1.6-.296c.587 0 1.125.1 1.616.296.49.197.912.472 1.264.824s.627.768.824 1.248c.197.48.296 1.003.296 1.568zm-1.152 0c0-.416-.067-.808-.2-1.176a2.88 2.88 0 0 0-.568-.96 2.688 2.688 0 0 0-.896-.648 2.83 2.83 0 0 0-1.184-.24c-.437 0-.83.08-1.176.24a2.71 2.71 0 0 0-.888.648 2.88 2.88 0 0 0-.568.96c-.133.368-.2.76-.2 1.176 0 .416.067.808.2 1.176.133.368.323.688.568.96.245.272.54.485.888.64.347.155.74.232 1.176.232.437 0 .832-.077 1.184-.232.352-.155.65-.368.896-.64a2.88 2.88 0 0 0 .568-.96c.133-.368.2-.76.2-1.176zM195.56 186a14.486 14.486 0 0 1-.064-1.28h-.032c-.213.437-.56.792-1.04 1.064s-.987.408-1.52.408c-.95 0-1.66-.283-2.136-.848-.475-.565-.712-1.312-.712-2.24v-4.592h1.088v4.144c0 .395.032.752.096 1.072.064.32.173.595.328.824.155.23.363.408.624.536.26.128.59.192.984.192a2.064 2.064 0 0 0 1.568-.712 2.68 2.68 0 0 0 .512-.912c.128-.368.192-.803.192-1.304v-3.84h1.088v5.84A24.47 24.47 0 0 0 196.6 186h-1.04zm3.856-5.84a24.47 24.47 0 0 0-.064-1.648h1.04a14.486 14.486 0 0 1 .064 1.28h.032c.213-.437.533-.792.96-1.064a2.622 2.622 0 0 1 1.44-.408c.14 0 .264.005.376.016.112.01.227.032.344.064l-.144 1.024a3.164 3.164 0 0 0-.768-.096 2.22 2.22 0 0 0-.832.16c-.267.107-.5.275-.696.504-.197.23-.357.523-.48.88s-.184.787-.184 1.288V186h-1.088v-5.84zm13.744.128a1.91 1.91 0 0 0-.728-.76 2.1 2.1 0 0 0-1.112-.296c-.192 0-.384.02-.576.064a1.566 1.566 0 0 0-.512.208c-.15.096-.27.22-.36.368a.998.998 0 0 0-.136.528c0 .352.144.62.432.808.288.187.74.344 1.36.472.885.18 1.54.445 1.96.792.42.347.632.813.632 1.4 0 .427-.083.787-.248 1.08a2.16 2.16 0 0 1-.648.72c-.267.187-.568.32-.904.4-.336.08-.675.12-1.016.12a4.052 4.052 0 0 1-1.648-.352 3.052 3.052 0 0 1-1.312-1.104l.864-.64c.192.33.475.608.848.832a2.35 2.35 0 0 0 1.232.336c.235 0 .46-.02.672-.064.213-.043.4-.117.56-.224.16-.107.288-.243.384-.408a1.21 1.21 0 0 0 .144-.616c0-.395-.19-.69-.568-.888-.38-.197-.925-.38-1.64-.552a9.868 9.868 0 0 1-.712-.2 2.445 2.445 0 0 1-.696-.352 1.915 1.915 0 0 1-.528-.584c-.14-.235-.208-.528-.208-.88 0-.384.075-.712.224-.984.15-.272.35-.496.6-.672.25-.176.536-.307.856-.392.32-.085.65-.128.992-.128.523 0 1.03.117 1.52.352s.86.565 1.104.992l-.832.624zm8.832 1.392c-.032-.704-.26-1.288-.68-1.752-.42-.464-1.02-.696-1.8-.696-.363 0-.7.067-1.008.2a2.705 2.705 0 0 0-1.376 1.328c-.14.293-.22.6-.24.92h5.104zm1.104.352v.24c0 .085-.005.176-.016.272h-6.208c.01.373.085.725.224 1.056.14.33.33.62.576.864.245.245.533.44.864.584.33.144.688.216 1.072.216.565 0 1.053-.13 1.464-.392.41-.26.723-.563.936-.904l.816.64c-.448.565-.94.97-1.48 1.216a4.14 4.14 0 0 1-1.736.368c-.555 0-1.07-.1-1.544-.296a3.617 3.617 0 0 1-1.224-.824 3.904 3.904 0 0 1-.808-1.248 4.084 4.084 0 0 1-.296-1.568c0-.565.096-1.088.288-1.568.192-.48.46-.896.8-1.248a3.68 3.68 0 0 1 2.688-1.12c.587 0 1.104.1 1.552.296a3.2 3.2 0 0 1 1.12.8c.3.336.525.728.68 1.176.155.448.232.928.232 1.44zm3.456 3.968h-1.088v-12.096h1.088V186zm8.624-4.32c-.032-.704-.26-1.288-.68-1.752-.42-.464-1.02-.696-1.8-.696-.363 0-.7.067-1.008.2a2.705 2.705 0 0 0-1.376 1.328c-.14.293-.22.6-.24.92h5.104zm1.104.352v.24c0 .085-.005.176-.016.272h-6.208c.01.373.085.725.224 1.056.14.33.33.62.576.864.245.245.533.44.864.584.33.144.688.216 1.072.216.565 0 1.053-.13 1.464-.392.41-.26.723-.563.936-.904l.816.64c-.448.565-.94.97-1.48 1.216a4.14 4.14 0 0 1-1.736.368c-.555 0-1.07-.1-1.544-.296a3.617 3.617 0 0 1-1.224-.824 3.904 3.904 0 0 1-.808-1.248 4.084 4.084 0 0 1-.296-1.568c0-.565.096-1.088.288-1.568.192-.48.46-.896.8-1.248a3.68 3.68 0 0 1 2.688-1.12c.587 0 1.104.1 1.552.296a3.2 3.2 0 0 1 1.12.8c.3.336.525.728.68 1.176.155.448.232.928.232 1.44zm7.728-1.808a2.066 2.066 0 0 0-.792-.712 2.342 2.342 0 0 0-1.128-.28c-.437 0-.832.077-1.184.232a2.68 2.68 0 0 0-.904.64c-.25.272-.443.592-.576.96-.133.368-.2.765-.2 1.192 0 .427.067.82.2 1.184.133.363.323.68.568.952.245.272.544.485.896.64.352.155.747.232 1.184.232.48 0 .885-.09 1.216-.272.33-.18.603-.416.816-.704l.816.608c-.32.395-.712.71-1.176.944-.464.235-1.02.352-1.672.352-.608 0-1.157-.1-1.648-.296a3.65 3.65 0 0 1-1.256-.824 3.732 3.732 0 0 1-.808-1.248 4.184 4.184 0 0 1-.288-1.568c0-.565.096-1.088.288-1.568.192-.48.46-.896.808-1.248a3.65 3.65 0 0 1 1.256-.824 4.382 4.382 0 0 1 1.648-.296c.5 0 1.01.11 1.528.328.517.22.936.54 1.256.968l-.848.608zm5.984-.8h-2.112v4.368c0 .277.027.507.08.688.053.18.13.323.232.424.1.1.22.17.36.208.14.037.288.056.448.056.15 0 .307-.02.472-.064.165-.043.323-.1.472-.176l.048.944a3.22 3.22 0 0 1-.6.168 3.855 3.855 0 0 1-.68.056c-.203 0-.416-.027-.64-.08a1.62 1.62 0 0 1-.624-.304 1.663 1.663 0 0 1-.472-.608c-.123-.256-.184-.592-.184-1.008v-4.672h-1.552v-.912h1.552V176.4h1.088v2.112h2.112v.912zm7.408 2.256c-.032-.704-.26-1.288-.68-1.752-.42-.464-1.02-.696-1.8-.696-.363 0-.7.067-1.008.2a2.705 2.705 0 0 0-1.376 1.328c-.14.293-.22.6-.24.92h5.104zm1.104.352v.24c0 .085-.005.176-.016.272h-6.208c.01.373.085.725.224 1.056.14.33.33.62.576.864.245.245.533.44.864.584.33.144.688.216 1.072.216.565 0 1.053-.13 1.464-.392.41-.26.723-.563.936-.904l.816.64c-.448.565-.94.97-1.48 1.216a4.14 4.14 0 0 1-1.736.368c-.555 0-1.07-.1-1.544-.296a3.617 3.617 0 0 1-1.224-.824 3.904 3.904 0 0 1-.808-1.248 4.084 4.084 0 0 1-.296-1.568c0-.565.096-1.088.288-1.568.192-.48.46-.896.8-1.248a3.68 3.68 0 0 1 2.688-1.12c.587 0 1.104.1 1.552.296a3.2 3.2 0 0 1 1.12.8c.3.336.525.728.68 1.176.155.448.232.928.232 1.44zm8.496 2.704c-.32.48-.736.843-1.248 1.088a3.626 3.626 0 0 1-1.584.368c-.587 0-1.117-.1-1.592-.304a3.627 3.627 0 0 1-1.216-.832 3.758 3.758 0 0 1-.784-1.248 4.245 4.245 0 0 1-.28-1.552c0-.555.093-1.072.28-1.552.187-.48.448-.896.784-1.248s.74-.63 1.216-.832a4.016 4.016 0 0 1 1.592-.304c.544 0 1.072.125 1.584.376.512.25.928.62 1.248 1.112h.032v-5.904h1.088V186h-1.088v-1.264H267zm-5.552-2.48c0 .416.064.808.192 1.176.128.368.312.688.552.96.24.272.536.485.888.64.352.155.752.232 1.2.232a2.832 2.832 0 0 0 2.064-.864c.256-.267.456-.584.6-.952.144-.368.216-.765.216-1.192 0-.427-.072-.824-.216-1.192a2.956 2.956 0 0 0-.6-.96 2.765 2.765 0 0 0-.912-.64 2.832 2.832 0 0 0-1.152-.232c-.448 0-.848.08-1.2.24-.352.16-.648.376-.888.648s-.424.592-.552.96c-.128.368-.192.76-.192 1.176zM280.824 186h-1.088v-7.488h1.088V186zm.24-10.368a.71.71 0 0 1-.24.552.773.773 0 0 1-.528.216.773.773 0 0 1-.528-.216.71.71 0 0 1-.24-.552.71.71 0 0 1 .24-.552.773.773 0 0 1 .528-.216c.192 0 .368.072.528.216a.71.71 0 0 1 .24.552zm-2.864 3.792h-1.76V186h-1.088v-6.576h-1.568v-.912h1.568v-2.048c0-.853.208-1.525.624-2.016.416-.49 1.056-.736 1.92-.736.14 0 .288.008.448.024.16.016.31.045.448.088l-.192.96a4.178 4.178 0 0 0-.352-.08 2.25 2.25 0 0 0-.4-.032c-.288 0-.525.048-.712.144a1.03 1.03 0 0 0-.432.408c-.1.176-.17.38-.208.616a4.79 4.79 0 0 0-.056.752v1.92h1.76v.912zm11.248 2.256c-.032-.704-.26-1.288-.68-1.752-.42-.464-1.02-.696-1.8-.696-.363 0-.7.067-1.008.2a2.705 2.705 0 0 0-1.376 1.328c-.14.293-.22.6-.24.92h5.104zm1.104.352v.24c0 .085-.005.176-.016.272h-6.208c.01.373.085.725.224 1.056.14.33.33.62.576.864.245.245.533.44.864.584.33.144.688.216 1.072.216.565 0 1.053-.13 1.464-.392.41-.26.723-.563.936-.904l.816.64c-.448.565-.94.97-1.48 1.216a4.14 4.14 0 0 1-1.736.368c-.555 0-1.07-.1-1.544-.296a3.617 3.617 0 0 1-1.224-.824 3.904 3.904 0 0 1-.808-1.248 4.084 4.084 0 0 1-.296-1.568c0-.565.096-1.088.288-1.568.192-.48.46-.896.8-1.248a3.68 3.68 0 0 1 2.688-1.12c.587 0 1.104.1 1.552.296a3.2 3.2 0 0 1 1.12.8c.3.336.525.728.68 1.176.155.448.232.928.232 1.44zm3.456 3.968h-1.088v-12.096h1.088V186zm9.072-1.264c-.32.48-.736.843-1.248 1.088a3.626 3.626 0 0 1-1.584.368c-.587 0-1.117-.1-1.592-.304a3.627 3.627 0 0 1-1.216-.832 3.758 3.758 0 0 1-.784-1.248 4.245 4.245 0 0 1-.28-1.552c0-.555.093-1.072.28-1.552.187-.48.448-.896.784-1.248s.74-.63 1.216-.832a4.016 4.016 0 0 1 1.592-.304c.544 0 1.072.125 1.584.376.512.25.928.62 1.248 1.112h.032v-5.904h1.088V186h-1.088v-1.264h-.032zm-5.552-2.48c0 .416.064.808.192 1.176.128.368.312.688.552.96.24.272.536.485.888.64.352.155.752.232 1.2.232a2.832 2.832 0 0 0 2.064-.864c.256-.267.456-.584.6-.952.144-.368.216-.765.216-1.192 0-.427-.072-.824-.216-1.192a2.956 2.956 0 0 0-.6-.96 2.765 2.765 0 0 0-.912-.64 2.832 2.832 0 0 0-1.152-.232c-.448 0-.848.08-1.2.24-.352.16-.648.376-.888.648s-.424.592-.552.96c-.128.368-.192.76-.192 1.176zm16.96-2.832h-2.112v4.368c0 .277.027.507.08.688.053.18.13.323.232.424.1.1.22.17.36.208.14.037.288.056.448.056.15 0 .307-.02.472-.064.165-.043.323-.1.472-.176l.048.944a3.22 3.22 0 0 1-.6.168 3.855 3.855 0 0 1-.68.056c-.203 0-.416-.027-.64-.08a1.62 1.62 0 0 1-.624-.304 1.663 1.663 0 0 1-.472-.608c-.123-.256-.184-.592-.184-1.008v-4.672h-1.552v-.912h1.552V176.4h1.088v2.112h2.112v.912zm4.272 5.408h.032l2.32-6.32h1.184l-3.728 9.424c-.224.576-.51 1.037-.856 1.384-.347.347-.845.52-1.496.52-.33 0-.656-.032-.976-.096l.112-.992c.256.085.523.128.8.128.373 0 .667-.115.88-.344.213-.23.4-.557.56-.984l.608-1.568-3.2-7.472h1.216l2.544 6.32zm6.32 5.008h-1.088v-11.328h1.088v1.296h.048c.31-.49.723-.86 1.24-1.112a3.58 3.58 0 0 1 1.576-.376c.587 0 1.117.1 1.592.304.475.203.88.48 1.216.832.336.352.597.768.784 1.248.187.48.28.997.28 1.552s-.093 1.072-.28 1.552c-.187.48-.448.896-.784 1.248s-.74.63-1.216.832a4.016 4.016 0 0 1-1.592.304 3.58 3.58 0 0 1-1.576-.376c-.517-.25-.93-.61-1.24-1.08h-.048v5.104zm5.584-7.584c0-.416-.064-.808-.192-1.176a2.846 2.846 0 0 0-.552-.96 2.603 2.603 0 0 0-.888-.648 2.87 2.87 0 0 0-1.2-.24c-.416 0-.8.077-1.152.232a2.765 2.765 0 0 0-.912.64 2.956 2.956 0 0 0-.6.96 3.242 3.242 0 0 0-.216 1.192c0 .427.072.824.216 1.192.144.368.344.685.6.952a2.824 2.824 0 0 0 2.064.864c.448 0 .848-.077 1.2-.232.352-.155.648-.368.888-.64s.424-.592.552-.96c.128-.368.192-.76.192-1.176zm9.2-.576c-.032-.704-.26-1.288-.68-1.752-.42-.464-1.02-.696-1.8-.696-.363 0-.7.067-1.008.2A2.705 2.705 0 0 0 335 180.76c-.14.293-.22.6-.24.92h5.104zm1.104.352v.24c0 .085-.005.176-.016.272h-6.208c.01.373.085.725.224 1.056.14.33.33.62.576.864.245.245.533.44.864.584.33.144.688.216 1.072.216.565 0 1.053-.13 1.464-.392.41-.26.723-.563.936-.904l.816.64c-.448.565-.94.97-1.48 1.216a4.14 4.14 0 0 1-1.736.368c-.555 0-1.07-.1-1.544-.296a3.617 3.617 0 0 1-1.224-.824 3.904 3.904 0 0 1-.808-1.248 4.084 4.084 0 0 1-.296-1.568c0-.565.096-1.088.288-1.568.192-.48.46-.896.8-1.248a3.68 3.68 0 0 1 2.688-1.12c.587 0 1.104.1 1.552.296a3.2 3.2 0 0 1 1.12.8c.3.336.525.728.68 1.176.155.448.232.928.232 1.44zm6.48-3.52l1.808 6.08h.032l2.016-6.08h1.056l2.048 6.08h.032l1.792-6.08h1.152L355.016 186h-1.184l-2-6.064h-.032L349.832 186h-1.184l-2.368-7.488h1.168zM360.344 186h-1.088v-7.488h1.088V186zm.224-10.368a.71.71 0 0 1-.24.552.773.773 0 0 1-.528.216.773.773 0 0 1-.528-.216.71.71 0 0 1-.24-.552.71.71 0 0 1 .24-.552.773.773 0 0 1 .528-.216c.192 0 .368.072.528.216a.71.71 0 0 1 .24.552zM364.36 186h-1.088v-12.096h1.088V186zm4.032 0h-1.088v-12.096h1.088V186zm8.032-1.264V186h-1.088v-12.096h1.088v5.904h.032c.32-.49.736-.86 1.248-1.112a3.562 3.562 0 0 1 1.584-.376c.587 0 1.117.1 1.592.304.475.203.88.48 1.216.832.336.352.597.768.784 1.248.187.48.28.997.28 1.552s-.093 1.072-.28 1.552c-.187.48-.448.896-.784 1.248s-.74.63-1.216.832a4.016 4.016 0 0 1-1.592.304 3.626 3.626 0 0 1-1.584-.368 3.072 3.072 0 0 1-1.248-1.088h-.032zm5.584-2.48c0-.416-.064-.808-.192-1.176a2.846 2.846 0 0 0-.552-.96 2.603 2.603 0 0 0-.888-.648 2.87 2.87 0 0 0-1.2-.24c-.416 0-.8.077-1.152.232a2.765 2.765 0 0 0-.912.64 2.956 2.956 0 0 0-.6.96 3.242 3.242 0 0 0-.216 1.192c0 .427.072.824.216 1.192.144.368.344.685.6.952a2.824 2.824 0 0 0 2.064.864c.448 0 .848-.077 1.2-.232.352-.155.648-.368.888-.64s.424-.592.552-.96c.128-.368.192-.76.192-1.176zm9.2-.576c-.032-.704-.26-1.288-.68-1.752-.42-.464-1.02-.696-1.8-.696-.363 0-.7.067-1.008.2a2.705 2.705 0 0 0-1.376 1.328c-.14.293-.22.6-.24.92h5.104zm1.104.352v.24c0 .085-.005.176-.016.272h-6.208c.01.373.085.725.224 1.056.14.33.33.62.576.864.245.245.533.44.864.584.33.144.688.216 1.072.216.565 0 1.053-.13 1.464-.392.41-.26.723-.563.936-.904l.816.64c-.448.565-.94.97-1.48 1.216a4.14 4.14 0 0 1-1.736.368c-.555 0-1.07-.1-1.544-.296a3.617 3.617 0 0 1-1.224-.824 3.904 3.904 0 0 1-.808-1.248 4.084 4.084 0 0 1-.296-1.568c0-.565.096-1.088.288-1.568.192-.48.46-.896.8-1.248a3.68 3.68 0 0 1 2.688-1.12c.587 0 1.104.1 1.552.296a3.2 3.2 0 0 1 1.12.8c.3.336.525.728.68 1.176.155.448.232.928.232 1.44zm7.424 7.808h-1.088v-11.328h1.088v1.296h.048c.31-.49.723-.86 1.24-1.112a3.58 3.58 0 0 1 1.576-.376c.587 0 1.117.1 1.592.304.475.203.88.48 1.216.832.336.352.597.768.784 1.248.187.48.28.997.28 1.552s-.093 1.072-.28 1.552c-.187.48-.448.896-.784 1.248s-.74.63-1.216.832a4.016 4.016 0 0 1-1.592.304 3.58 3.58 0 0 1-1.576-.376c-.517-.25-.93-.61-1.24-1.08h-.048v5.104zm5.584-7.584c0-.416-.064-.808-.192-1.176a2.846 2.846 0 0 0-.552-.96 2.603 2.603 0 0 0-.888-.648 2.87 2.87 0 0 0-1.2-.24c-.416 0-.8.077-1.152.232a2.765 2.765 0 0 0-.912.64 2.956 2.956 0 0 0-.6.96 3.242 3.242 0 0 0-.216 1.192c0 .427.072.824.216 1.192.144.368.344.685.6.952a2.824 2.824 0 0 0 2.064.864c.448 0 .848-.077 1.2-.232.352-.155.648-.368.888-.64s.424-.592.552-.96c.128-.368.192-.76.192-1.176zm3.488-2.096a24.47 24.47 0 0 0-.064-1.648h1.04a14.486 14.486 0 0 1 .064 1.28h.032c.213-.437.533-.792.96-1.064a2.622 2.622 0 0 1 1.44-.408c.14 0 .264.005.376.016.112.01.227.032.344.064l-.144 1.024a3.164 3.164 0 0 0-.768-.096 2.22 2.22 0 0 0-.832.16c-.267.107-.5.275-.696.504-.197.23-.357.523-.48.88s-.184.787-.184 1.288V186h-1.088v-5.84zm11.472 1.52c-.032-.704-.26-1.288-.68-1.752-.42-.464-1.02-.696-1.8-.696-.363 0-.7.067-1.008.2a2.705 2.705 0 0 0-1.376 1.328c-.14.293-.22.6-.24.92h5.104zm1.104.352v.24c0 .085-.005.176-.016.272h-6.208c.01.373.085.725.224 1.056.14.33.33.62.576.864.245.245.533.44.864.584.33.144.688.216 1.072.216.565 0 1.053-.13 1.464-.392.41-.26.723-.563.936-.904l.816.64c-.448.565-.94.97-1.48 1.216a4.14 4.14 0 0 1-1.736.368c-.555 0-1.07-.1-1.544-.296a3.617 3.617 0 0 1-1.224-.824 3.904 3.904 0 0 1-.808-1.248 4.084 4.084 0 0 1-.296-1.568c0-.565.096-1.088.288-1.568.192-.48.46-.896.8-1.248a3.68 3.68 0 0 1 2.688-1.12c.587 0 1.104.1 1.552.296a3.2 3.2 0 0 1 1.12.8c.3.336.525.728.68 1.176.155.448.232.928.232 1.44zm5.408 3.968h-1.2l-3.056-7.488h1.216l2.432 6.336h.032l2.448-6.336h1.168l-3.04 7.488zm5.84 0h-1.088v-7.488h1.088V186zm.224-10.368a.71.71 0 0 1-.24.552.773.773 0 0 1-.528.216.773.773 0 0 1-.528-.216.71.71 0 0 1-.24-.552.71.71 0 0 1 .24-.552.773.773 0 0 1 .528-.216c.192 0 .368.072.528.216a.71.71 0 0 1 .24.552zm8.384 6.048c-.032-.704-.26-1.288-.68-1.752-.42-.464-1.02-.696-1.8-.696-.363 0-.7.067-1.008.2a2.705 2.705 0 0 0-1.376 1.328c-.14.293-.22.6-.24.92h5.104zm1.104.352v.24c0 .085-.005.176-.016.272h-6.208c.01.373.085.725.224 1.056.14.33.33.62.576.864.245.245.533.44.864.584.33.144.688.216 1.072.216.565 0 1.053-.13 1.464-.392.41-.26.723-.563.936-.904l.816.64c-.448.565-.94.97-1.48 1.216a4.14 4.14 0 0 1-1.736.368c-.555 0-1.07-.1-1.544-.296a3.617 3.617 0 0 1-1.224-.824 3.904 3.904 0 0 1-.808-1.248 4.084 4.084 0 0 1-.296-1.568c0-.565.096-1.088.288-1.568.192-.48.46-.896.8-1.248a3.68 3.68 0 0 1 2.688-1.12c.587 0 1.104.1 1.552.296a3.2 3.2 0 0 1 1.12.8c.3.336.525.728.68 1.176.155.448.232.928.232 1.44zm2.48-3.52l1.808 6.08h.032l2.016-6.08h1.056l2.048 6.08h.032l1.792-6.08h1.152L452.392 186h-1.184l-2-6.064h-.032L447.208 186h-1.184l-2.368-7.488h1.168zm16.944 1.232c.203-.437.54-.784 1.008-1.04.47-.256.97-.384 1.504-.384.95 0 1.66.283 2.136.848.475.565.712 1.312.712 2.24V186h-1.088v-4.144c0-.395-.032-.752-.096-1.072a2.244 2.244 0 0 0-.328-.824 1.568 1.568 0 0 0-.624-.536c-.26-.128-.59-.192-.984-.192a2.064 2.064 0 0 0-1.568.712 2.68 2.68 0 0 0-.512.912c-.128.368-.192.803-.192 1.304V186h-1.088v-12.096h1.088v5.84h.032zm13.888 1.936c-.032-.704-.26-1.288-.68-1.752-.42-.464-1.02-.696-1.8-.696-.363 0-.7.067-1.008.2a2.705 2.705 0 0 0-1.376 1.328c-.14.293-.22.6-.24.92h5.104zm1.104.352v.24c0 .085-.005.176-.016.272h-6.208c.01.373.085.725.224 1.056.14.33.33.62.576.864.245.245.533.44.864.584.33.144.688.216 1.072.216.565 0 1.053-.13 1.464-.392.41-.26.723-.563.936-.904l.816.64c-.448.565-.94.97-1.48 1.216a4.14 4.14 0 0 1-1.736.368c-.555 0-1.07-.1-1.544-.296a3.617 3.617 0 0 1-1.224-.824 3.904 3.904 0 0 1-.808-1.248 4.084 4.084 0 0 1-.296-1.568c0-.565.096-1.088.288-1.568.192-.48.46-.896.8-1.248a3.68 3.68 0 0 1 2.688-1.12c.587 0 1.104.1 1.552.296a3.2 3.2 0 0 1 1.12.8c.3.336.525.728.68 1.176.155.448.232.928.232 1.44zm2.336-1.872a24.47 24.47 0 0 0-.064-1.648h1.04a14.486 14.486 0 0 1 .064 1.28h.032c.213-.437.533-.792.96-1.064a2.622 2.622 0 0 1 1.44-.408c.14 0 .264.005.376.016.112.01.227.032.344.064l-.144 1.024a3.164 3.164 0 0 0-.768-.096 2.22 2.22 0 0 0-.832.16c-.267.107-.5.275-.696.504-.197.23-.357.523-.48.88s-.184.787-.184 1.288V186h-1.088v-5.84zm11.472 1.52c-.032-.704-.26-1.288-.68-1.752-.42-.464-1.02-.696-1.8-.696-.363 0-.7.067-1.008.2a2.705 2.705 0 0 0-1.376 1.328c-.14.293-.22.6-.24.92h5.104zm1.104.352v.24c0 .085-.005.176-.016.272h-6.208c.01.373.085.725.224 1.056.14.33.33.62.576.864.245.245.533.44.864.584.33.144.688.216 1.072.216.565 0 1.053-.13 1.464-.392.41-.26.723-.563.936-.904l.816.64c-.448.565-.94.97-1.48 1.216a4.14 4.14 0 0 1-1.736.368c-.555 0-1.07-.1-1.544-.296a3.617 3.617 0 0 1-1.224-.824 3.904 3.904 0 0 1-.808-1.248 4.084 4.084 0 0 1-.296-1.568c0-.565.096-1.088.288-1.568.192-.48.46-.896.8-1.248a3.68 3.68 0 0 1 2.688-1.12c.587 0 1.104.1 1.552.296a3.2 3.2 0 0 1 1.12.8c.3.336.525.728.68 1.176.155.448.232.928.232 1.44zm4.432 3.2c0 .224-.08.424-.24.6a.804.804 0 0 1-.624.264.804.804 0 0 1-.624-.264.868.868 0 0 1 0-1.2.804.804 0 0 1 .624-.264c.256 0 .464.088.624.264.16.176.24.376.24.6zm5.328 0c0 .224-.08.424-.24.6a.804.804 0 0 1-.624.264.804.804 0 0 1-.624-.264.868.868 0 0 1 0-1.2.804.804 0 0 1 .624-.264c.256 0 .464.088.624.264.16.176.24.376.24.6zm5.328 0c0 .224-.08.424-.24.6a.804.804 0 0 1-.624.264.804.804 0 0 1-.624-.264.868.868 0 0 1 0-1.2.804.804 0 0 1 .624-.264c.256 0 .464.088.624.264.16.176.24.376.24.6z" fill="#C0C0C0"/><rect stroke="#E0E0E0" stroke-width="2" fill="#EFEFEF" x="338" y="59" width="246" height="40" rx="6"/><path d="M359.832 79.224a2.066 2.066 0 0 0-.792-.712 2.342 2.342 0 0 0-1.128-.28c-.437 0-.832.077-1.184.232a2.68 2.68 0 0 0-.904.64c-.25.272-.443.592-.576.96-.133.368-.2.765-.2 1.192 0 .427.067.82.2 1.184.133.363.323.68.568.952.245.272.544.485.896.64.352.155.747.232 1.184.232.48 0 .885-.09 1.216-.272.33-.18.603-.416.816-.704l.816.608c-.32.395-.712.71-1.176.944-.464.235-1.02.352-1.672.352-.608 0-1.157-.1-1.648-.296a3.65 3.65 0 0 1-1.256-.824 3.732 3.732 0 0 1-.808-1.248 4.184 4.184 0 0 1-.288-1.568c0-.565.096-1.088.288-1.568.192-.48.46-.896.808-1.248a3.65 3.65 0 0 1 1.256-.824 4.382 4.382 0 0 1 1.648-.296c.5 0 1.01.11 1.528.328.517.22.936.54 1.256.968l-.848.608zm3.76-.48c.203-.437.54-.784 1.008-1.04.47-.256.97-.384 1.504-.384.95 0 1.66.283 2.136.848.475.565.712 1.312.712 2.24V85h-1.088v-4.144c0-.395-.032-.752-.096-1.072a2.244 2.244 0 0 0-.328-.824 1.568 1.568 0 0 0-.624-.536c-.26-.128-.59-.192-.984-.192a2.064 2.064 0 0 0-1.568.712 2.68 2.68 0 0 0-.512.912c-.128.368-.192.803-.192 1.304V85h-1.088V72.904h1.088v5.84h.032zm15.616 2.512c0 .565-.1 1.088-.296 1.568-.197.48-.472.896-.824 1.248a3.734 3.734 0 0 1-1.264.824c-.49.197-1.03.296-1.616.296-.576 0-1.11-.1-1.6-.296a3.734 3.734 0 0 1-1.264-.824 3.772 3.772 0 0 1-.824-1.248 4.084 4.084 0 0 1-.296-1.568c0-.565.1-1.088.296-1.568.197-.48.472-.896.824-1.248a3.734 3.734 0 0 1 1.264-.824 4.25 4.25 0 0 1 1.6-.296c.587 0 1.125.1 1.616.296.49.197.912.472 1.264.824s.627.768.824 1.248c.197.48.296 1.003.296 1.568zm-1.152 0c0-.416-.067-.808-.2-1.176a2.88 2.88 0 0 0-.568-.96 2.688 2.688 0 0 0-.896-.648 2.83 2.83 0 0 0-1.184-.24c-.437 0-.83.08-1.176.24a2.71 2.71 0 0 0-.888.648 2.88 2.88 0 0 0-.568.96c-.133.368-.2.76-.2 1.176 0 .416.067.808.2 1.176.133.368.323.688.568.96.245.272.54.485.888.64.347.155.74.232 1.176.232.437 0 .832-.077 1.184-.232.352-.155.65-.368.896-.64a2.88 2.88 0 0 0 .568-.96c.133-.368.2-.76.2-1.176zm10.928 0c0 .565-.1 1.088-.296 1.568-.197.48-.472.896-.824 1.248a3.734 3.734 0 0 1-1.264.824c-.49.197-1.03.296-1.616.296-.576 0-1.11-.1-1.6-.296a3.734 3.734 0 0 1-1.264-.824 3.772 3.772 0 0 1-.824-1.248 4.084 4.084 0 0 1-.296-1.568c0-.565.1-1.088.296-1.568.197-.48.472-.896.824-1.248a3.734 3.734 0 0 1 1.264-.824 4.25 4.25 0 0 1 1.6-.296c.587 0 1.125.1 1.616.296.49.197.912.472 1.264.824s.627.768.824 1.248c.197.48.296 1.003.296 1.568zm-1.152 0c0-.416-.067-.808-.2-1.176a2.88 2.88 0 0 0-.568-.96 2.688 2.688 0 0 0-.896-.648 2.83 2.83 0 0 0-1.184-.24c-.437 0-.83.08-1.176.24a2.71 2.71 0 0 0-.888.648 2.88 2.88 0 0 0-.568.96c-.133.368-.2.76-.2 1.176 0 .416.067.808.2 1.176.133.368.323.688.568.96.245.272.54.485.888.64.347.155.74.232 1.176.232.437 0 .832-.077 1.184-.232.352-.155.65-.368.896-.64a2.88 2.88 0 0 0 .568-.96c.133-.368.2-.76.2-1.176zm7.472-1.968a1.91 1.91 0 0 0-.728-.76 2.1 2.1 0 0 0-1.112-.296c-.192 0-.384.02-.576.064a1.566 1.566 0 0 0-.512.208c-.15.096-.27.22-.36.368a.998.998 0 0 0-.136.528c0 .352.144.62.432.808.288.187.74.344 1.36.472.885.18 1.54.445 1.96.792.42.347.632.813.632 1.4 0 .427-.083.787-.248 1.08a2.16 2.16 0 0 1-.648.72c-.267.187-.568.32-.904.4-.336.08-.675.12-1.016.12a4.052 4.052 0 0 1-1.648-.352 3.052 3.052 0 0 1-1.312-1.104l.864-.64c.192.33.475.608.848.832a2.35 2.35 0 0 0 1.232.336c.235 0 .46-.02.672-.064.213-.043.4-.117.56-.224.16-.107.288-.243.384-.408a1.21 1.21 0 0 0 .144-.616c0-.395-.19-.69-.568-.888-.38-.197-.925-.38-1.64-.552a9.868 9.868 0 0 1-.712-.2 2.445 2.445 0 0 1-.696-.352 1.915 1.915 0 0 1-.528-.584c-.14-.235-.208-.528-.208-.88 0-.384.075-.712.224-.984.15-.272.35-.496.6-.672.25-.176.536-.307.856-.392.32-.085.65-.128.992-.128.523 0 1.03.117 1.52.352s.86.565 1.104.992l-.832.624zm8.832 1.392c-.032-.704-.26-1.288-.68-1.752-.42-.464-1.02-.696-1.8-.696-.363 0-.7.067-1.008.2a2.705 2.705 0 0 0-1.376 1.328c-.14.293-.22.6-.24.92h5.104zm1.104.352v.24c0 .085-.005.176-.016.272h-6.208c.01.373.085.725.224 1.056.14.33.33.62.576.864.245.245.533.44.864.584.33.144.688.216 1.072.216.565 0 1.053-.13 1.464-.392.41-.26.723-.563.936-.904l.816.64c-.448.565-.94.97-1.48 1.216a4.14 4.14 0 0 1-1.736.368c-.555 0-1.07-.1-1.544-.296a3.617 3.617 0 0 1-1.224-.824 3.904 3.904 0 0 1-.808-1.248 4.084 4.084 0 0 1-.296-1.568c0-.565.096-1.088.288-1.568.192-.48.46-.896.8-1.248a3.68 3.68 0 0 1 2.688-1.12c.587 0 1.104.1 1.552.296a3.2 3.2 0 0 1 1.12.8c.3.336.525.728.68 1.176.155.448.232.928.232 1.44zm11.056-.864c0-.65-.17-1.136-.512-1.456-.34-.32-.837-.48-1.488-.48-.448 0-.864.08-1.248.24-.384.16-.71.373-.976.64l-.608-.72c.31-.31.717-.565 1.224-.768.507-.203 1.08-.304 1.72-.304.405 0 .784.056 1.136.168.352.112.66.28.928.504.267.224.475.507.624.848.15.34.224.74.224 1.2v3.28c0 .288.01.587.032.896.02.31.053.57.096.784h-.976c-.032-.18-.06-.38-.08-.592a6.272 6.272 0 0 1-.032-.624h-.032c-.34.5-.728.86-1.16 1.08-.432.22-.952.328-1.56.328-.288 0-.584-.04-.888-.12-.304-.08-.58-.21-.832-.392-.25-.18-.46-.416-.624-.704-.165-.288-.248-.64-.248-1.056 0-.576.147-1.032.44-1.368.293-.336.685-.587 1.176-.752a6.932 6.932 0 0 1 1.688-.32 26.215 26.215 0 0 1 1.976-.072v-.24zm-.32 1.088c-.448 0-.9.02-1.352.056a5.897 5.897 0 0 0-1.232.224 2.33 2.33 0 0 0-.904.488c-.235.213-.352.496-.352.848 0 .267.05.49.152.672.1.18.237.328.408.44.17.112.36.192.568.24.208.048.42.072.632.072.384 0 .725-.067 1.024-.2.3-.133.55-.315.752-.544.203-.23.357-.493.464-.792.107-.3.16-.613.16-.944v-.56h-.32zM429.912 85h-1.088v-7.488h1.088V85zm.24-10.368a.71.71 0 0 1-.24.552.773.773 0 0 1-.528.216.773.773 0 0 1-.528-.216.71.71 0 0 1-.24-.552.71.71 0 0 1 .24-.552.773.773 0 0 1 .528-.216c.192 0 .368.072.528.216a.71.71 0 0 1 .24.552zm-2.864 3.792h-1.76V85h-1.088v-6.576h-1.568v-.912h1.568v-2.048c0-.853.208-1.525.624-2.016.416-.49 1.056-.736 1.92-.736.14 0 .288.008.448.024.16.016.31.045.448.088l-.192.96a4.178 4.178 0 0 0-.352-.08 2.25 2.25 0 0 0-.4-.032c-.288 0-.525.048-.712.144a1.03 1.03 0 0 0-.432.408c-.1.176-.17.38-.208.616a4.79 4.79 0 0 0-.056.752v1.92h1.76v.912zm11.248 2.256c-.032-.704-.26-1.288-.68-1.752-.42-.464-1.02-.696-1.8-.696-.363 0-.7.067-1.008.2a2.705 2.705 0 0 0-1.376 1.328c-.14.293-.22.6-.24.92h5.104zm1.104.352v.24c0 .085-.005.176-.016.272h-6.208c.01.373.085.725.224 1.056.14.33.33.62.576.864.245.245.533.44.864.584.33.144.688.216 1.072.216.565 0 1.053-.13 1.464-.392.41-.26.723-.563.936-.904l.816.64c-.448.565-.94.97-1.48 1.216a4.14 4.14 0 0 1-1.736.368c-.555 0-1.07-.1-1.544-.296a3.617 3.617 0 0 1-1.224-.824 3.904 3.904 0 0 1-.808-1.248 4.084 4.084 0 0 1-.296-1.568c0-.565.096-1.088.288-1.568.192-.48.46-.896.8-1.248a3.68 3.68 0 0 1 2.688-1.12c.587 0 1.104.1 1.552.296a3.2 3.2 0 0 1 1.12.8c.3.336.525.728.68 1.176.155.448.232.928.232 1.44zM443.096 85h-1.088V72.904h1.088V85zm9.072-1.264c-.32.48-.736.843-1.248 1.088a3.626 3.626 0 0 1-1.584.368c-.587 0-1.117-.1-1.592-.304a3.627 3.627 0 0 1-1.216-.832 3.758 3.758 0 0 1-.784-1.248 4.245 4.245 0 0 1-.28-1.552c0-.555.093-1.072.28-1.552.187-.48.448-.896.784-1.248s.74-.63 1.216-.832a4.016 4.016 0 0 1 1.592-.304c.544 0 1.072.125 1.584.376.512.25.928.62 1.248 1.112h.032v-5.904h1.088V85H452.2v-1.264h-.032zm-5.552-2.48c0 .416.064.808.192 1.176.128.368.312.688.552.96.24.272.536.485.888.64.352.155.752.232 1.2.232a2.832 2.832 0 0 0 2.064-.864c.256-.267.456-.584.6-.952.144-.368.216-.765.216-1.192 0-.427-.072-.824-.216-1.192a2.956 2.956 0 0 0-.6-.96 2.765 2.765 0 0 0-.912-.64 2.832 2.832 0 0 0-1.152-.232c-.448 0-.848.08-1.2.24-.352.16-.648.376-.888.648s-.424.592-.552.96c-.128.368-.192.76-.192 1.176zm16.96-2.832h-2.112v4.368c0 .277.027.507.08.688.053.18.13.323.232.424.1.1.22.17.36.208.14.037.288.056.448.056.15 0 .307-.02.472-.064.165-.043.323-.1.472-.176l.048.944a3.22 3.22 0 0 1-.6.168 3.855 3.855 0 0 1-.68.056c-.203 0-.416-.027-.64-.08a1.62 1.62 0 0 1-.624-.304 1.663 1.663 0 0 1-.472-.608c-.123-.256-.184-.592-.184-1.008v-4.672h-1.552v-.912h1.552V75.4h1.088v2.112h2.112v.912zm4.272 5.408h.032l2.32-6.32h1.184l-3.728 9.424c-.224.576-.51 1.037-.856 1.384-.347.347-.845.52-1.496.52-.33 0-.656-.032-.976-.096l.112-.992c.256.085.523.128.8.128.373 0 .667-.115.88-.344.213-.23.4-.557.56-.984l.608-1.568-3.2-7.472h1.216l2.544 6.32zm6.32 5.008h-1.088V77.512h1.088v1.296h.048c.31-.49.723-.86 1.24-1.112a3.58 3.58 0 0 1 1.576-.376c.587 0 1.117.1 1.592.304.475.203.88.48 1.216.832.336.352.597.768.784 1.248.187.48.28.997.28 1.552s-.093 1.072-.28 1.552c-.187.48-.448.896-.784 1.248s-.74.63-1.216.832a4.016 4.016 0 0 1-1.592.304 3.58 3.58 0 0 1-1.576-.376c-.517-.25-.93-.61-1.24-1.08h-.048v5.104zm5.584-7.584c0-.416-.064-.808-.192-1.176a2.846 2.846 0 0 0-.552-.96 2.603 2.603 0 0 0-.888-.648 2.87 2.87 0 0 0-1.2-.24c-.416 0-.8.077-1.152.232a2.765 2.765 0 0 0-.912.64 2.956 2.956 0 0 0-.6.96 3.242 3.242 0 0 0-.216 1.192c0 .427.072.824.216 1.192.144.368.344.685.6.952a2.824 2.824 0 0 0 2.064.864c.448 0 .848-.077 1.2-.232.352-.155.648-.368.888-.64s.424-.592.552-.96c.128-.368.192-.76.192-1.176zm9.2-.576c-.032-.704-.26-1.288-.68-1.752-.42-.464-1.02-.696-1.8-.696-.363 0-.7.067-1.008.2a2.705 2.705 0 0 0-1.376 1.328c-.14.293-.22.6-.24.92h5.104zm1.104.352v.24c0 .085-.005.176-.016.272h-6.208c.01.373.085.725.224 1.056.14.33.33.62.576.864.245.245.533.44.864.584.33.144.688.216 1.072.216.565 0 1.053-.13 1.464-.392.41-.26.723-.563.936-.904l.816.64c-.448.565-.94.97-1.48 1.216a4.14 4.14 0 0 1-1.736.368c-.555 0-1.07-.1-1.544-.296a3.617 3.617 0 0 1-1.224-.824 3.904 3.904 0 0 1-.808-1.248 4.084 4.084 0 0 1-.296-1.568c0-.565.096-1.088.288-1.568.192-.48.46-.896.8-1.248a3.68 3.68 0 0 1 2.688-1.12c.587 0 1.104.1 1.552.296a3.2 3.2 0 0 1 1.12.8c.3.336.525.728.68 1.176.155.448.232.928.232 1.44zm3.84 3.2c0 .224-.08.424-.24.6a.804.804 0 0 1-.624.264.804.804 0 0 1-.624-.264.868.868 0 0 1 0-1.2.804.804 0 0 1 .624-.264c.256 0 .464.088.624.264.16.176.24.376.24.6z" fill="#3C8ED7"/><g transform="translate(438 268)"><rect stroke="#398BCF" stroke-width="2" fill="#3E96DF" width="145" height="40" rx="6"/><path d="M18.76 26h-1.264l4.896-11.328h1.12L28.376 26h-1.28l-1.248-2.976h-5.856L18.76 26zm1.664-4.032h4.992l-2.496-6.016-2.496 6.016zm15.712 2.768c-.32.48-.736.843-1.248 1.088a3.626 3.626 0 0 1-1.584.368c-.587 0-1.117-.1-1.592-.304a3.627 3.627 0 0 1-1.216-.832 3.758 3.758 0 0 1-.784-1.248 4.245 4.245 0 0 1-.28-1.552c0-.555.093-1.072.28-1.552.187-.48.448-.896.784-1.248s.74-.63 1.216-.832a4.016 4.016 0 0 1 1.592-.304c.544 0 1.072.125 1.584.376.512.25.928.62 1.248 1.112h.032v-5.904h1.088V26h-1.088v-1.264h-.032zm-5.552-2.48c0 .416.064.808.192 1.176.128.368.312.688.552.96.24.272.536.485.888.64.352.155.752.232 1.2.232a2.832 2.832 0 0 0 2.064-.864c.256-.267.456-.584.6-.952.144-.368.216-.765.216-1.192 0-.427-.072-.824-.216-1.192a2.956 2.956 0 0 0-.6-.96 2.765 2.765 0 0 0-.912-.64 2.832 2.832 0 0 0-1.152-.232c-.448 0-.848.08-1.2.24-.352.16-.648.376-.888.648s-.424.592-.552.96c-.128.368-.192.76-.192 1.176zm15.744 2.48c-.32.48-.736.843-1.248 1.088a3.626 3.626 0 0 1-1.584.368c-.587 0-1.117-.1-1.592-.304a3.627 3.627 0 0 1-1.216-.832 3.758 3.758 0 0 1-.784-1.248 4.245 4.245 0 0 1-.28-1.552c0-.555.093-1.072.28-1.552.187-.48.448-.896.784-1.248s.74-.63 1.216-.832a4.016 4.016 0 0 1 1.592-.304c.544 0 1.072.125 1.584.376.512.25.928.62 1.248 1.112h.032v-5.904h1.088V26H46.36v-1.264h-.032zm-5.552-2.48c0 .416.064.808.192 1.176.128.368.312.688.552.96.24.272.536.485.888.64.352.155.752.232 1.2.232a2.832 2.832 0 0 0 2.064-.864c.256-.267.456-.584.6-.952.144-.368.216-.765.216-1.192 0-.427-.072-.824-.216-1.192a2.956 2.956 0 0 0-.6-.96 2.765 2.765 0 0 0-.912-.64 2.832 2.832 0 0 0-1.152-.232c-.448 0-.848.08-1.2.24-.352.16-.648.376-.888.648s-.424.592-.552.96c-.128.368-.192.76-.192 1.176zM60.152 26h-1.088v-7.488h1.088V26zm.24-10.368a.71.71 0 0 1-.24.552.773.773 0 0 1-.528.216.773.773 0 0 1-.528-.216.71.71 0 0 1-.24-.552.71.71 0 0 1 .24-.552.773.773 0 0 1 .528-.216c.192 0 .368.072.528.216a.71.71 0 0 1 .24.552zm-2.864 3.792h-1.76V26H54.68v-6.576h-1.568v-.912h1.568v-2.048c0-.853.208-1.525.624-2.016.416-.49 1.056-.736 1.92-.736.14 0 .288.008.448.024.16.016.31.045.448.088l-.192.96a4.178 4.178 0 0 0-.352-.08 2.25 2.25 0 0 0-.4-.032c-.288 0-.525.048-.712.144a1.03 1.03 0 0 0-.432.408c-.1.176-.17.38-.208.616a4.79 4.79 0 0 0-.056.752v1.92h1.76v.912zm11.248 2.256c-.032-.704-.26-1.288-.68-1.752-.42-.464-1.02-.696-1.8-.696-.363 0-.7.067-1.008.2a2.705 2.705 0 0 0-1.376 1.328c-.14.293-.22.6-.24.92h5.104zm1.104.352v.24c0 .085-.005.176-.016.272h-6.208c.01.373.085.725.224 1.056.14.33.33.62.576.864.245.245.533.44.864.584.33.144.688.216 1.072.216.565 0 1.053-.13 1.464-.392.41-.26.723-.563.936-.904l.816.64c-.448.565-.94.97-1.48 1.216a4.14 4.14 0 0 1-1.736.368c-.555 0-1.07-.1-1.544-.296a3.617 3.617 0 0 1-1.224-.824 3.904 3.904 0 0 1-.808-1.248 4.084 4.084 0 0 1-.296-1.568c0-.565.096-1.088.288-1.568.192-.48.46-.896.8-1.248a3.68 3.68 0 0 1 2.688-1.12c.587 0 1.104.1 1.552.296a3.2 3.2 0 0 1 1.12.8c.3.336.525.728.68 1.176.155.448.232.928.232 1.44zM73.336 26h-1.088V13.904h1.088V26zm9.072-1.264c-.32.48-.736.843-1.248 1.088a3.626 3.626 0 0 1-1.584.368c-.587 0-1.117-.1-1.592-.304a3.627 3.627 0 0 1-1.216-.832 3.758 3.758 0 0 1-.784-1.248 4.245 4.245 0 0 1-.28-1.552c0-.555.093-1.072.28-1.552.187-.48.448-.896.784-1.248s.74-.63 1.216-.832a4.016 4.016 0 0 1 1.592-.304c.544 0 1.072.125 1.584.376.512.25.928.62 1.248 1.112h.032v-5.904h1.088V26H82.44v-1.264h-.032zm-5.552-2.48c0 .416.064.808.192 1.176.128.368.312.688.552.96.24.272.536.485.888.64.352.155.752.232 1.2.232a2.832 2.832 0 0 0 2.064-.864c.256-.267.456-.584.6-.952.144-.368.216-.765.216-1.192 0-.427-.072-.824-.216-1.192a2.956 2.956 0 0 0-.6-.96 2.765 2.765 0 0 0-.912-.64 2.832 2.832 0 0 0-1.152-.232c-.448 0-.848.08-1.2.24-.352.16-.648.376-.888.648s-.424.592-.552.96c-.128.368-.192.76-.192 1.176zM131.94 14.184a.633.633 0 0 0-.893 0l-7.926 7.927a.633.633 0 0 1-.892 0l-1.953-1.95a.633.633 0 0 0-.893 0l-1.198 1.198a.633.633 0 0 0 0 .893l4.044 4.044a.633.633 0 0 0 .893 0l10.018-10.02a.635.635 0 0 0 0-.893l-1.198-1.196z" fill="#FFF"/></g><path d="M559 71h16l-8 16-8-16z" fill="#C0C0C0"/></g><path d="M419.59 630.61l-5.348-5.347a8.346 8.346 0 0 0 1.558-4.863c0-4.632-3.768-8.4-8.4-8.4-4.632 0-8.4 3.768-8.4 8.4 0 4.632 3.768 8.4 8.4 8.4 1.81 0 3.49-.578 4.863-1.558l5.348 5.348c.272.273.63.41.99.41s.718-.137.99-.41a1.4 1.4 0 0 0 0-1.98zM407.4 626a5.6 5.6 0 1 1 0-11.2 5.6 5.6 0 0 1 0 11.2z" fill="#C0C0C0"/></g></svg>