<?xml version="1.0" encoding="UTF-8" standalone="no"?>
<svg width="34px" height="28px" viewBox="0 0 34 28" version="1.1" xmlns="http://www.w3.org/2000/svg" xmlns:xlink="http://www.w3.org/1999/xlink" xmlns:sketch="http://www.bohemiancoding.com/sketch/ns">
    <!-- Generator: Sketch 3.4.4 (17249) - http://www.bohemiancoding.com/sketch -->
    <title>woof</title>
    <desc>Created with Sketch.</desc>
    <defs></defs>
    <g id="Page-2-Copy" stroke="none" stroke-width="1" fill="none" fill-rule="evenodd" sketch:type="MSPage">
        <path d="M7.38761023,15.7281271 L5.75808256,15.4484462 C5.34623374,15.3777527 5.02506313,15.1586031 5.0406973,14.9615452 C5.05677817,14.7649291 5.39179619,14.4905502 5.78577739,14.3522562 L9.26683799,13.1358873 C9.31061368,13.1199813 9.35260261,13.1080518 9.39280477,13.1009825 C11.3207218,12.421 17.2831493,10.3103593 17.8254318,9.99975006 C18.4731333,9.63037689 19.8726152,8.73654683 21.207327,7.05890337 C21.7165544,6.41691866 22.179326,5.51425193 22.5174709,4.7600414 C21.4914223,5.04458245 21.0483051,4.53558976 21.4757881,3.67931559 C22.2052341,2.21949626 23.3393817,1.90358499 24.2783256,1.94467555 C24.6097701,1.74275744 25.0528873,1.5704422 25.3477031,1.53907199 C25.6983553,1.50107427 26.3058547,1.58767373 26.6949223,1.73259526 L32.8212852,4.00229619 C33.2121395,4.14721773 33.3322993,4.54044993 33.0915331,4.87536005 L32.2472876,6.04887099 C32.0047346,6.38554845 31.4722793,6.72576058 31.064004,6.80661619 L29.2129177,7.17245469 C28.8046424,7.25375214 28.1953563,7.5215035 27.8603383,7.76627951 C27.4645703,8.05612257 27.0875634,8.55672042 26.9602565,8.91946608 C26.8329497,9.28353725 26.7453983,9.91845261 26.7628192,10.3293582 L27.3944399,24.3125186 C27.4136476,24.7251915 27.1344659,25.061869 26.7735398,25.061869 C26.4139538,25.061869 26.0476674,24.7322609 25.9601161,24.3284246 L24.8433893,19.1713389 C24.7562846,18.7675027 24.3654303,18.5585153 23.9763627,18.7069715 L23.597569,18.8501257 C23.2085014,18.9968145 22.8440018,19.4523453 22.7863787,19.8614835 L21.9260524,26.0869237 C21.870216,26.4960619 21.5177771,26.8292047 21.1425569,26.8292047 C20.7691235,26.8292047 20.4323187,26.4925273 20.39569,26.0816217 L19.8913762,20.4398442 C19.8547476,20.0289386 19.4831009,19.6803316 19.0663385,19.6648674 C19.0663385,19.6648674 14.0147134,19.4510198 13.3830928,19.4510198 C11.5422804,19.4510198 11.0884427,22.4333989 11.1183709,22.8438626 L11.2211098,24.314286 C11.2510381,24.7251915 10.9664961,25.061869 10.5894892,25.061869 C10.2124822,25.061869 9.81314072,24.737121 9.69789452,24.3403542 L8.82193406,21.3062805 C8.40517164,21.5581259 7.95133389,22.0308882 7.748983,22.3918665 L5.94122575,25.6349276 C5.74066163,25.9954641 5.23456107,26.2923765 4.81735195,26.2923765 C4.35681384,26.2941438 4.11783432,25.9729306 4.24335441,25.5796984 L7.38761023,15.7281271 Z" id="woof" fill="#2B222B" sketch:type="MSShapeGroup"></path>
    </g>
</svg>