<?xml version="1.0" encoding="UTF-8" standalone="no"?>
<svg width="65px" height="54px" viewBox="0 0 65 54" version="1.1" xmlns="http://www.w3.org/2000/svg" xmlns:xlink="http://www.w3.org/1999/xlink">
    <title>woof_large</title>
    <g stroke="none" stroke-width="1" fill="none" fill-rule="evenodd">
        <g id="large-woof" fill="#2B222B">
            <path d="M13.3406552,30.3328165 L10.1774544,29.7934319 C9.37798314,29.6570946 8.75453431,29.2344489 8.784883,28.8544086 C8.8160988,28.4752204 9.4664279,27.9460611 10.2312149,27.6793512 L16.9885679,25.333497 C17.0735442,25.3028211 17.1550521,25.2798142 17.2330916,25.2661805 C20.9755188,23.9547858 32.5496427,19.8842644 33.6023087,19.2852323 C34.8596117,18.5728697 37.5762531,16.8490546 40.1671642,13.6135994 C41.1556645,12.375486 42.0539858,10.6346287 42.7103846,9.18007984 C40.7186433,9.72883759 39.8584747,8.74720882 40.6882946,7.09582292 C42.1042779,4.28045707 44.3058587,3.67119963 46.1285144,3.7504457 C46.7719066,3.3610322 47.6320753,3.02870996 48.2043649,2.96821027 C48.8850427,2.89492896 50.0643061,3.06194219 50.819555,3.34143371 L62.7119065,7.71871409 C63.4706238,7.99820561 63.7038752,8.75658201 63.2365053,9.4024801 L61.597676,11.6656798 C61.1268377,12.3149863 60.093248,12.9711097 59.3007136,13.1270455 L55.7074285,13.8325912 C54.9148941,13.9893791 53.7321623,14.5057568 53.0818331,14.9778248 C52.3135777,15.5368078 51.5817407,16.5022465 51.3346156,17.2018274 C51.0874906,17.9039647 50.9175379,19.1284443 50.951355,19.9209051 L52.1774421,46.8884288 C52.2147277,47.6842979 51.6727868,48.3336045 50.9721655,48.3336045 C50.2741456,48.3336045 49.5631191,47.6979317 49.3931665,46.9191047 L47.2254028,36.9732965 C47.0563172,36.1944695 46.2975999,35.7914223 45.5423511,36.0777307 L44.8070456,36.3538138 C44.0517968,36.6367137 43.3442387,37.5152374 43.2323821,38.3042897 L41.562337,50.3104957 C41.4539488,51.099548 40.7698026,51.7420377 40.041434,51.7420377 C39.3165338,51.7420377 38.6627363,51.0927312 38.5916336,50.3002704 L37.6126715,39.4196995 C37.5415689,38.6272387 36.8201371,37.9549253 36.0111277,37.9251015 C36.0111277,37.9251015 26.2050319,37.5126811 24.9789448,37.5126811 C21.4056031,37.5126811 20.524624,43.2644121 20.5827201,44.0560208 L20.7821543,46.8918372 C20.8402504,47.6842979 20.2879042,48.3336045 19.5560672,48.3336045 C18.8242302,48.3336045 18.0490379,47.7073049 17.8253247,46.9421116 L16.1249308,41.0906838 C15.3159214,41.5763856 14.4349423,42.4881415 14.0421435,43.184314 L10.5329676,49.4387889 C10.1436373,50.1341093 9.16120678,50.7067261 8.35133026,50.7067261 C7.45734452,50.7101345 6.9934431,50.0906518 7.23709973,49.3322754 L13.3406552,30.3328165 Z"></path>
        </g>
    </g>
</svg>