<?xml version="1.0" encoding="UTF-8" standalone="no"?>
<svg width="27px" height="27px" viewBox="0 0 27 27" version="1.1" xmlns="http://www.w3.org/2000/svg" xmlns:xlink="http://www.w3.org/1999/xlink">
    <title>icon-linkedin</title>
    <description>(c) copyright sascha.st/einbock</description>
    <g stroke="none" stroke-width="1" fill="none" fill-rule="evenodd">
        <g transform="translate(-1004.000000, -3008.000000)">
            <g transform="translate(50.000000, 2992.000000)">
                <g transform="translate(856.000000, 16.000000)">
                    <g transform="translate(98.000000, 0.000000)">
                        <path d="M13.5,25 C19.8512746,25 25,19.8512746 25,13.5 C25,7.14872538 19.8512746,2 13.5,2 C7.14872538,2 2,7.14872538 2,13.5 C2,19.8512746 7.14872538,25 13.5,25 Z" stroke="#FFFFFF" stroke-width="1.20930233"></path>
                        <path d="M10,19.99178 L10,10.99178 L8,10.99178 L8,19.99178 L10,19.99178 Z" fill="#FFFFFF"></path>
                        <path d="M12.1542358,10.9654801 L12.1542358,20.0570064 L14.0415039,20.0570064 L14.0415039,14.6298829 C14.0415039,12.7586173 14.6765198,12.3326416 16.671814,12.3326416 C18.0835787,12.3326416 18.4691162,12.7901002 18.4691162,14.3606568 L18.4691162,20.0570062 L20.1890907,20.0570062 L20.1890909,13.7642586 C20.1890909,11.8753395 19.2715307,10.9654801 16.937439,10.9654801 C15.5599976,10.9654801 14.1324267,10.9397066 13.6430149,12.4932102 L13.6430149,10.9654801 L12.1542358,10.9654801 Z" fill="#FFFFFF"></path>
                        <path d="M9,9.5 C9.96649831,9.5 10.75,8.71649831 10.75,7.75 C10.75,6.78350169 9.96649831,6 9,6 C8.03350169,6 7.25,6.78350169 7.25,7.75 C7.25,8.71649831 8.03350169,9.5 9,9.5 Z" fill="#FFFFFF"></path>
                    </g>
                </g>
            </g>
        </g>
    </g>
</svg>