<?xml version="1.0" encoding="UTF-8" standalone="no"?>
<svg width="30px" height="31px" viewBox="0 0 30 31" version="1.1" xmlns="http://www.w3.org/2000/svg" xmlns:xlink="http://www.w3.org/1999/xlink">
    <g stroke="none" stroke-width="1" fill="none" fill-rule="evenodd">
        <g transform="translate(-1351.000000, -209.000000)" stroke="#FFFFFF" stroke-width="1.7">
            <g transform="translate(266.000000, 173.000000)">
                <g transform="translate(245.000000, 30.000000)">
                    <g transform="translate(785.000000, 1.000000)">
                        <path d="M76.4964091,6.94263165 L83.4295493,22.5147195 L70.7620719,33.9205675 L56,25.3976813 L59.5440153,8.72440003 L76.4964091,6.94263165 Z M71.6238443,14 C70.0668828,14 68.7930052,15.1234043 68.5099213,16.6212766 C66.9529598,16.3404255 65.9621661,15.3106383 65.5847209,14.8425532 C65.3959983,14.6085106 65.1129144,14.4680851 64.8298305,14.4680851 L64.7354692,14.4680851 C64.4523852,14.5148936 64.1693013,14.7021277 64.0277594,14.9829787 C63.7918561,15.4510638 63.6503142,16.012766 63.6503142,16.5276596 C63.6503142,16.9021277 63.6974948,17.2297872 63.8390368,17.6042553 C63.6503142,17.7446809 63.6031335,17.9787234 63.6031335,18.1659574 C63.6031335,18.6808511 63.7446755,19.2425532 64.0277594,19.7106383 C64.1221207,19.8510638 64.216482,19.9914894 64.3108433,20.1319149 C64.2636626,20.3191489 64.2636626,20.506383 64.3108433,20.693617 C64.4523852,21.1617021 64.6882885,21.5829787 65.0185531,21.9574468 C64.8298305,22.0042553 64.6411078,22.0042553 64.4052046,22.0042553 C64.216482,22.0042553 63.9805787,22.0042553 63.7918561,21.9574468 L63.6503142,21.9574468 C63.2728689,21.9574468 62.9426044,22.1914894 62.8010624,22.5191489 C62.6595205,22.893617 62.8010624,23.3617021 63.131327,23.5957447 C64.4052046,24.5319149 65.8678048,25 67.4247663,25 C71.4351217,25 74.6905867,21.6765957 74.784948,17.6042553 C75.2095738,17.2765957 75.4926577,16.8085106 75.6813804,16.293617 C75.8229223,15.9191489 75.728561,15.5446809 75.4454771,15.2638298 C75.5398384,14.8893617 75.3511158,14.4680851 75.0208512,14.2808511 C74.8793093,14.187234 74.6905867,14.1404255 74.5018641,14.1404255 C74.2659608,14.1404255 74.0772382,14.2340426 73.8885156,14.3744681 C73.7469736,14.4680851 73.6054317,14.5617021 73.4167091,14.6085106 C72.9449026,14.2340426 72.2843734,14 71.6238443,14 L71.6238443,14 L71.6238443,14 Z"></path>
                    </g>
                </g>
            </g>
        </g>
    </g>
</svg>