<?xml version="1.0" encoding="UTF-8" standalone="no"?>
<svg width="30px" height="31px" viewBox="0 0 30 31" version="1.1" xmlns="http://www.w3.org/2000/svg" xmlns:xlink="http://www.w3.org/1999/xlink">
    <g stroke="none" stroke-width="1" fill="none" fill-rule="evenodd">
        <g transform="translate(-1303.000000, -209.000000)" stroke="#FFFFFF" stroke-width="1.7">
            <g transform="translate(266.000000, 173.000000)">
                <g transform="translate(245.000000, 30.000000)">
                    <g transform="translate(785.000000, 1.000000)">
                        <path d="M21.2629433,33 L25.2207382,34.2100193 L34.9977916,20.2469401 L24.7393897,6.63358104 L8.62229536,12.1831417 L8.9197851,29.2263178 L20.3949854,32.7346386 L20.25,26.0459193 L18.375,26.0459193 C18.15,26.0459193 18,25.895154 18,25.669006 L18,23.4075262 C18,23.1813782 18.15,23.0306129 18.375,23.0306129 L20.25,23.0306129 L20.25,21.447577 C20.25,18.8845665 22.125,17 24.75,17 C25.725,17 26.25,17.0753827 26.55,17.1507653 L26.7,17.1507653 C26.85,17.1507653 27,17.3015306 27,17.5276786 L27,19.6383931 C27,19.7891585 27,19.8645411 26.925,19.9399238 C26.85,19.9399238 26.7,20.0153064 26.625,20.0153064 L25.05,20.0153064 C24.15,20.0153064 24,21.221429 24,21.899873 L24,23.0306129 L26.325,23.0306129 C26.475,23.0306129 26.55,23.1059955 26.625,23.1813782 C26.7,23.2567609 26.7,23.4075262 26.7,23.4829088 L26.25,25.7443887 C26.175,25.895154 26.025,26.0459193 25.875,26.0459193 L24,26.0459193 L24.0000005,33 L21.2629433,33 Z"></path>
                    </g>
                </g>
            </g>
        </g>
    </g>
</svg>