<?xml version="1.0" encoding="UTF-8" standalone="no"?>
<svg width="81px" height="80px" viewBox="0 0 81 80" version="1.1" xmlns="http://www.w3.org/2000/svg" xmlns:xlink="http://www.w3.org/1999/xlink">
    <g stroke="none" stroke-width="1" fill="none" fill-rule="evenodd">
        <g transform="translate(-521.000000, -217.000000)">
            <g sketch:type="MSLayerGroup" transform="translate(266.000000, 173.000000)">
                <g transform="translate(245.000000, 30.000000)">
                    <g>
                        <polygon stroke="#FFFFFF" stroke-width="4" transform="translate(51.500000, 51.500000) rotate(-30.000000) translate(-51.500000, -51.500000) " points="51.5 14 87.1646194 39.9118627 73.541947 81.8381373 29.458053 81.8381373 15.8353806 39.9118627 "></polygon>
                        <g transform="translate(51.837216, 52.027241) rotate(-19.000000) translate(-51.837216, -52.027241) translate(39.837216, 34.027241)" fill="#FFFFFF">
                            <path d="M16.2410392,17.5466386 L17.3,18.15 C21.2,20.4 23.2,23.65 23.2,26.5 C23.2,27.1063642 23.1470333,27.6836486 23.0448042,28.2314827 C23.2961798,30.0338553 23.5741334,32.1175474 23.7,33.2 C19.85,34.85 16.4,35.6 13.05,35.6 C12.7721655,35.6 12.4970823,35.5945833 12.225,35.5837749 C11.9529177,35.5945833 11.6778345,35.6 11.4,35.6 C8.05,35.6 4.6,34.85 0.75,33.2 C0.875866584,32.1175474 1.15382018,30.0338553 1.40519584,28.2314827 C1.30296675,27.6836486 1.25,27.1063642 1.25,26.5 C1.25,23.65 3.25,20.4 7.15,18.15 L8.20896077,17.5466386 M15.4,21.65 C18.2,23.25 18.95,25.5 18.95,27.15 C18.95,30.3063832 16.9220783,33.0383177 12.225,33.1930864 C7.52792171,33.0383177 5.5,30.3063832 5.5,27.15 C5.5,25.5 6.25,23.25 9.05,21.65 L12.225,19.8382768 L15.4,21.65 Z"></path>
                            <path d="M15.849798,1 L16.8649237,1.56815698 C20.6034858,3.68687599 22.5206972,6.7472479 22.5206972,9.43095865 C22.5206972,10.0019432 22.4699229,10.5455447 22.3719256,11.0614144 C22.6128957,12.7586237 22.8793436,14.7207384 23,15.7400331 C19.3093682,17.2937603 16.0021786,18 12.7908497,18 C12.5245159,18 12.2608196,17.9948994 12,17.9847216 C11.7391804,17.9948994 11.4754841,18 11.2091503,18 C7.99782135,18 4.69063181,17.2937603 1,15.7400331 C1.12065642,14.7207384 1.38710431,12.7586237 1.62807445,11.0614144 C1.53007706,10.5455447 1.47930283,10.0019432 1.47930283,9.43095865 C1.47930283,6.7472479 3.39651416,3.68687599 7.13507625,1.56815698 L8.15020204,1 M15.043573,4.86394211 C17.7276688,6.37058674 18.4466231,8.48930576 18.4466231,10.043033 C18.4466231,13.0152504 16.5026459,15.5877844 12,15.7335228 C7.49735415,15.5877844 5.55337691,13.0152504 5.55337691,10.043033 C5.55337691,8.48930576 6.27233115,6.37058674 8.95642702,4.86394211 L12,3.15792775 L15.043573,4.86394211 Z" transform="translate(12.000000, 9.500000) scale(1, -1) translate(-12.000000, -9.500000) "></path>
                        </g>
                    </g>
                </g>
            </g>
        </g>
    </g>
</svg>