<?xml version="1.0" encoding="UTF-8" standalone="no"?>
<svg width="200px" height="200px" viewBox="0 0 200 200" version="1.1" xmlns="http://www.w3.org/2000/svg" xmlns:xlink="http://www.w3.org/1999/xlink" xmlns:sketch="http://www.bohemiancoding.com/sketch/ns">
    <!-- Generator: Sketch 3.0.1 (7597) - http://www.bohemiancoding.com/sketch -->
    <title>user-research</title>
    <description>Created with Sketch.</description>
    <defs></defs>
    <g id="Icons" stroke="none" stroke-width="1" fill="none" fill-rule="evenodd" sketch:type="MSPage">
        <g id="user-research" sketch:type="MSArtboardGroup">
            <path d="M168.738509,86.0383096 C171.586517,64.5214301 162.838494,38.7396574 137.000829,27.169425 C116.570714,18.021054 80.5108187,18.0369559 61.4911605,35.3366479 C44.903545,50.427564 41.1646379,71.8458516 41.1646379,71.8458516 C41.1646379,71.8458516 39.4529643,79.8031692 39.4529643,82.4444771 C39.4529643,84.969701 42.3025661,85.9635706 41.97585,87.2611668 C41.6507277,88.5587629 38.4584723,92.2718598 36.0184609,96.3300282 C33.5800432,100.386606 27.34375,109.404582 27.34375,111.837574 C27.34375,114.270567 28.8036132,115.172206 31.7313082,116.145403 C34.6574094,117.1186 36.9348597,117.929598 37.4225432,119.064994 C37.9102268,120.200391 36.0280233,123.444381 35.9276179,125.75811 C35.8415561,127.731537 36.5651127,127.950984 38.0472882,128.525043 C39.884867,129.239039 42.7057816,129.33127 42.7057816,129.33127 C42.7057816,129.33127 36.4216764,130.515962 37.0464213,133.082531 C37.6934785,135.746102 41.4786041,136.286767 41.8148826,138.373098 C41.982225,139.425805 38.6146586,144.818144 39.0577175,150.067365 C39.636244,156.91791 46.140285,159.983799 56.4517638,158.33318 C66.2803404,156.758891 70.9021779,155.295914 72.1660114,160.704155 C72.9612862,164.108755 72.8768181,169.852526 74.3398687,176.345278 C74.4004307,176.604479 74.4625865,176.882762 74.5215547,177.156275 L149.948349,177.156275 C146.722625,171.290059 142.481691,161.874536 142.481691,149.894034 C142.481691,141.674335 143.300872,129.472797 149.208855,122.983226 C156.614951,114.847807 166.451496,103.32687 168.738509,86.0383096 Z M149.237096,73.8263234 C149.237096,77.5519956 147.773306,80.9348359 145.393552,83.4536002 C144.985093,88.7692423 141.609611,93.2557911 136.904446,95.2786737 L136.904446,95.3285242 C131.158851,98.6667614 127.723765,104.365466 126.678076,111.201112 L121.365482,111.201112 L121.365482,95.3433919 C121.400543,90.400317 122.958997,87.2352449 126.224914,85.282328 C127.419612,84.5966644 128.505622,83.8121742 129.431228,82.9428507 C131.855685,83.8121742 134.001409,85.5158384 135.366152,87.940149 C135.650144,88.4167902 136.15765,88.6852835 136.660773,88.6852835 C136.904446,88.6852835 137.158637,88.6258126 137.387409,88.4911287 C138.114921,88.0931989 138.373495,87.1897672 137.965036,86.4743682 L137.955395,86.4743682 C136.426742,83.7614491 134.102208,81.7595563 131.463004,80.5675161 C132.817229,78.4904102 133.569284,76.0171236 133.534223,73.0462061 C133.534223,73.0313384 133.554383,73.0164707 133.554383,72.9963556 C133.554383,71.6547638 133.355413,70.3490294 132.996915,69.1211318 C136.098923,68.5299219 138.831916,66.9600671 140.843531,64.7482772 C141.400999,64.1378267 141.360679,63.1985375 140.743608,62.6519307 C140.13092,62.100951 139.205314,62.149927 138.657488,62.7463843 C136.904446,64.6494507 134.539592,65.9508122 131.851303,66.3085117 C129.690678,62.3143463 125.672706,59.4781128 120.963159,58.9612414 C121.276953,56.4276094 122.42169,54.1677181 124.144054,52.4483117 C124.712039,51.8719694 124.712039,50.9318057 124.144054,50.3607109 C123.566426,49.7791212 122.610142,49.7791212 122.033391,50.3607109 C119.828064,52.5628805 118.353756,55.5031879 117.985617,58.7775815 C112.453893,58.0822976 108.192248,53.3972211 108.182606,47.6932695 C108.182606,46.8834169 107.510315,46.2082481 106.713557,46.2082481 C105.872097,46.2082481 105.214706,46.8834169 105.214706,47.6932695 C105.214706,48.6570467 105.309371,49.5762207 105.49344,50.4805271 C103.396802,52.2900143 100.788275,53.203941 98.1744898,53.203941 C96.8851275,53.203941 95.590506,52.9756779 94.3712653,52.5331451 C94.3712653,52.5331451 94.3511053,52.5278976 94.3362044,52.5235248 C92.832971,51.9821654 91.4533269,51.120713 90.2586288,49.9286728 C89.6862606,49.3523306 88.7404945,49.3523306 88.157608,49.9286728 C87.5747216,50.5050151 87.5747216,51.440806 88.157608,52.0215211 C89.3821078,53.2389238 90.7617519,54.1825858 92.2299245,54.863002 C91.93629,58.5536913 89.7853075,61.7283838 86.777964,63.5116339 C85.0406994,60.8783008 82.4269138,58.7924492 79.215341,57.773574 C78.4133243,57.5251959 77.5823824,57.9572339 77.3281913,58.7373512 C77.109061,59.5174685 77.5078781,60.3474363 78.2993765,60.590567 C80.6843901,61.3453217 82.6013415,62.8111026 83.980109,64.6791861 C83.0545029,64.9275642 82.1034776,65.0613736 81.0928489,65.0613736 C81.0928489,65.0613736 81.0928489,65.0613736 81.0770715,65.0613736 L80.9122856,65.0613736 C77.0985428,65.0613736 73.5933354,66.577005 71.0444123,69.0564136 C70.4413659,69.6275084 70.4273416,70.5667976 71.0198698,71.1483872 C71.302986,71.4466159 71.6921614,71.595293 72.095361,71.595293 C72.4345746,71.595293 72.807096,71.4562362 73.096348,71.1781226 C75.1184819,69.2103381 77.8760169,68.0235453 80.9131621,68.0235453 L81.0726889,68.0235453 L81.0770715,68.0235453 L81.0928489,68.0235453 C88.241754,68.0235453 94.1819367,62.7114015 95.112802,55.8267792 C96.1286899,56.0454219 97.1437012,56.1643635 98.1744898,56.1643635 C101.077527,56.1643635 104.005107,55.2653046 106.469008,53.4864274 C107.370071,55.5381708 108.794418,57.3310412 110.522041,58.7224835 C108.759357,60.8887957 107.724186,63.4617834 107.450711,66.0942418 C106.708298,65.9753002 105.927318,65.9105819 105.145461,65.9105819 C102.905074,65.9105819 100.629625,66.4414465 98.5137034,67.5705176 C97.7870676,67.9535796 97.5127165,68.851764 97.8966327,69.5776578 C98.1657246,70.0691667 98.6881311,70.3577751 99.2210559,70.3577751 C99.4647287,70.3577751 99.683859,70.3035517 99.8977301,70.1784881 C101.60081,69.2890494 103.383654,68.8666317 105.145461,68.8666317 C105.931701,68.8666317 106.708298,68.9514651 107.450711,69.1097624 C107.774148,72.1104152 109.074028,75.0463498 111.309157,77.3814542 C111.60805,77.6901778 111.99109,77.8388548 112.375006,77.8388548 C112.738762,77.8388548 113.116543,77.7041709 113.411054,77.4313048 C114.018483,76.86021 114.033384,75.9305411 113.455757,75.3393311 L113.446115,75.3393311 C111.459042,73.2429846 110.40897,70.5807907 110.339725,67.8879868 C110.339725,67.8477566 110.349366,67.8180211 110.339725,67.773418 L110.339725,67.6089987 C110.339725,64.9949062 111.246047,62.4114237 113.038533,60.3351923 C114.925682,61.2744815 117.075788,61.8210883 119.352113,61.8210883 C119.352113,61.8210883 119.361755,61.8254611 119.376656,61.8254611 L119.401198,61.8254611 C125.564894,61.8455763 130.554051,66.8148883 130.578594,72.9639965 C129.409315,72.6561475 128.204099,72.4969756 126.969081,72.4969756 C125.202014,72.4969756 123.409529,72.8196923 121.681906,73.5307184 C120.91495,73.8438148 120.551194,74.7026435 120.860606,75.4582728 C121.173524,76.2130275 122.025502,76.5812218 122.787199,76.2733729 C124.171226,75.7223932 125.580671,75.4538999 126.969081,75.4538999 C128.089274,75.4538999 129.199827,75.6226921 130.240257,75.9454088 C129.876501,77.6044698 129.164766,78.9355668 128.059473,80.1179867 C127.97445,80.1923252 127.894687,80.2771586 127.830701,80.3759851 C126.983982,81.2059529 125.968094,81.9703279 124.713792,82.73033 C120.417086,85.2342266 118.355509,89.7749988 118.400212,95.3398936 L118.400212,111.197614 L113.331291,111.197614 L113.331291,96.1182618 C113.331291,90.5796041 109.851502,85.3269311 105.469774,83.4588476 C103.378395,82.6489949 101.197611,81.2925354 99.6093547,79.5189056 C97.3444245,81.0537775 94.6254564,81.9580839 91.7022589,81.9580839 C88.7694197,81.9580839 86.0513281,81.0686453 83.8012987,79.5442681 C81.5609111,81.0144219 78.8568439,81.8741251 75.9652011,81.8741251 C68.0125263,81.8749996 61.5849979,75.4460288 61.5849979,67.5224162 C61.5849979,61.5998219 65.1743513,56.5176902 70.3133938,54.3312629 C71.7026796,48.0107388 77.3132904,43.2819338 84.064255,43.2819338 C84.4227521,43.2819338 84.7514475,43.3116692 85.085402,43.3317843 C87.6299424,39.6209799 91.9064883,37.1861744 96.7510198,37.1861744 C99.1509342,37.1861744 101.40184,37.7826318 103.378395,38.8452355 C105.608264,37.3654615 108.276394,36.5066328 111.148753,36.5066328 C114.83803,36.5066328 118.198612,37.9426783 120.717733,40.2725352 C121.773064,40.0189097 122.863456,39.8702326 124.00381,39.8702326 C129.704703,39.8702326 134.63338,43.2933032 136.834324,48.1961478 C142.620239,49.9452897 146.831923,55.301162 146.831923,61.6400521 C146.831923,62.9116782 146.662754,64.1387013 146.34896,65.3062534 C148.151963,67.6719678 149.237096,70.6227701 149.237096,73.8263234 Z" id="Shape" fill-opacity="0.801958859" fill="#110911" sketch:type="MSShapeGroup"></path>
            <g id="search--heart" sketch:type="MSLayerGroup" transform="translate(90.843750, 36.500000)">
                <path d="M41.3385827,73.2283465 C23.7263217,73.2283465 9.4488189,58.9508436 9.4488189,41.3385827 C9.4488189,23.7263217 23.7263217,9.4488189 41.3385827,9.4488189 C58.9519826,9.4488189 73.2283465,23.7263217 73.2283465,41.3385827 C73.2283465,58.9508436 58.9519826,73.2283465 41.3385827,73.2283465 L41.3385827,73.2283465 Z" id="Path" fill="#FFFFFF" sketch:type="MSShapeGroup"></path>
                <path d="M15.3759766,19.9394531 C15.3759766,19.9394531 20.8994141,23.9042969 22.0917969,28.1591797 C23.2841797,32.4140625 30.5317383,28.612793 26.3417969,24.9091797 C22.1518555,21.2055664 19.0292969,19.0166016 18.7871094,16.1191406 C18.5449219,13.2216797 34.5258789,4.29785156 36.1425781,5.76269531 C37.7592773,7.22753906 40.3554687,26.0883789 38.2700195,29.6850586 C36.1845703,33.2817383 46.9418945,36.0146484 44.3378906,29.3544922 C41.7338867,22.6943359 40.4760742,4.80224609 41.3505859,4.09960938 C42.2250977,3.39697266 67.8203125,17.1064453 67.8203125,17.1064453 C67.8203125,17.1064453 62.7680664,25.4765625 58.7587891,26.7519531 C54.7495117,28.0273438 59.0952148,34.9418945 61.0087891,31.0019531 C62.9223633,27.0620117 71.1767578,21.5751953 71.1767578,21.5751953 L77.6816406,43.6552734 C77.6816406,43.6552734 73.4433594,65.0795898 69.4082031,62.5 C65.3730469,59.9204102 56.8339844,54.9824219 55.0883789,49 C53.3427734,43.0175781 45.6621094,50.7348633 49.5039062,52.2382812 C53.3457031,53.7416992 62.9414062,62.5 65.1777344,65.3417969 C67.4140625,68.1835937 49.9873047,75.4775391 49.9873047,75.4775391 L37.6767578,76.4882812 C37.6767578,76.4882812 13.9472656,70.059082 16.1328125,64.7275391 C18.3183594,59.3959961 28.152832,51.7851563 32.4804688,50.3925781 C36.8081055,49 31.4438477,37.8789062 27.2304687,45.6425781 C23.0170898,53.40625 16.328125,57.5942383 13.3144531,58.5722656 C10.3007813,59.550293 4.06835938,39.5009766 4.06835938,39.5009766 L1.97119141,40.5791016 L10.96875,65.9790039 L29.8588867,79.0512695 L49.9506836,79.5209961 L64.6801758,71.6411133 L75.581543,61.0395508 L80.1733398,46.5864258 L77.6748047,29.2446289 L71.2441406,16.6347656 L44.2963867,1.69726562 L34.5522461,2.44287109 L13.7583008,14.4555664 L1.68017578,39.6630859 L15.3759766,19.9394531 Z" id="Path-48" fill="#413A41" sketch:type="MSShapeGroup"></path>
                <path d="M51.3783902,22.8346457 C47.3727909,22.8346457 43.6433508,24.6994751 40.8456255,28.0947507 C38.0504812,24.6994751 34.3339458,22.8423622 30.3309274,22.8423622 C24.407699,22.8423622 18.1102362,27.2767979 18.1102362,35.4949081 C18.1102362,43.9496588 25.6336395,49.8502362 31.125853,54.1612073 C33.2034996,55.7945407 34.7288276,56.952021 35.9728346,57.8985827 C37.9369204,59.3853018 38.9202537,60.1312336 39.9784339,61.1806824 C40.2081365,61.4147507 40.5178478,61.5407874 40.8456255,61.5407874 C41.1708224,61.5407874 41.4805337,61.4147507 41.7128171,61.1832546 C43.1142607,59.791706 44.3892388,58.8322835 47.8063867,56.2523885 L50.5524934,54.1714961 C55.1052493,50.7222047 63.5861767,44.2994751 63.5861767,35.4074541 C63.5861767,27.2433596 57.2964567,22.8346457 51.3783902,22.8346457 L51.3783902,22.8346457 Z" id="Shape" fill="#E91121" sketch:type="MSShapeGroup"></path>
                <path d="M98.6687576,92.2409091 L72.8723132,66.4443182 C78.4711451,59.4454545 81.8177169,50.5681818 81.8177169,40.9090909 C81.8177169,18.3159091 63.5030483,0 40.9088585,0 C18.315805,0 0,18.3159091 0,40.9090909 C0,63.5022727 18.315805,81.8181818 40.9088585,81.8181818 C50.5678945,81.8181818 59.4451168,78.4704545 66.4439407,72.8715909 L92.240385,98.6681818 C93.12788,99.5556818 94.2915097,100 95.4540031,100 C96.6176329,100 97.7812626,99.5556818 98.6687576,98.6681818 C100.443747,96.8943182 100.443747,94.0147727 98.6687576,92.2409091 Z M41.3385827,73.2283465 C23.7263217,73.2283465 9.4488189,58.9508436 9.4488189,41.3385827 C9.4488189,23.7263217 23.7263217,9.4488189 41.3385827,9.4488189 C58.9519826,9.4488189 73.2283465,23.7263217 73.2283465,41.3385827 C73.2283465,58.9508436 58.9519826,73.2283465 41.3385827,73.2283465 Z" id="search" fill="#F3BC12" sketch:type="MSShapeGroup"></path>
            </g>
        </g>
    </g>
</svg>