<?xml version="1.0" encoding="UTF-8" standalone="no"?>
<svg width="200px" height="171px" viewBox="0 0 200 171" version="1.1" xmlns="http://www.w3.org/2000/svg" xmlns:xlink="http://www.w3.org/1999/xlink" xmlns:sketch="http://www.bohemiancoding.com/sketch/ns">
    <!-- Generator: Sketch 3.0.1 (7597) - http://www.bohemiancoding.com/sketch -->
    <title>conceptual-design</title>
    <description>Created with Sketch.</description>
    <defs></defs>
    <g id="Icons" stroke="none" stroke-width="1" fill="none" fill-rule="evenodd" sketch:type="MSPage">
        <g id="conceptual-design" sketch:type="MSArtboardGroup" transform="translate(0.000000, -1.000000)">
            <g sketch:type="MSLayerGroup" transform="translate(2.000000, 3.000000)">
                <g id="browser" sketch:type="MSShapeGroup">
                    <rect id="Rectangle-2" stroke="#413A41" stroke-width="4" fill="#FFFFFF" x="0" y="0" width="196" height="167" rx="4"></rect>
                    <rect id="Rectangle-5" fill="#E9E9E9" x="2" y="22" width="192" height="18"></rect>
                    <path d="M2.03449245,20 L194.066077,20" id="Line" stroke="#413A41" stroke-width="4"></path>
                    <circle id="Oval-4" fill="#E91121" cx="12" cy="10" r="3"></circle>
                    <circle id="Oval-5" fill="#F3BC12" cx="24" cy="10" r="3"></circle>
                    <circle id="Oval-6" fill-opacity="0.8" fill="#229C0C" cx="37" cy="10" r="3"></circle>
                </g>
                <g id="content" transform="translate(16.000000, 27.000000)" sketch:type="MSShapeGroup">
                    <rect id="Rectangle-12" fill="#7F7F7F" x="0" y="126" width="70" height="3"></rect>
                    <rect id="Rectangle-11" fill="#7F7F7F" x="0" y="113" width="60" height="3"></rect>
                    <rect id="Rectangle-10" fill="#7F7F7F" x="0" y="101" width="84" height="3"></rect>
                    <rect id="Rectangle-9" fill="#E91121" x="117" y="106" width="47" height="15"></rect>
                    <path d="M3,89 L42.167527,51.2216367 L66.2250516,73.0245956 L97.5724561,38 L160,88.9999992" id="Path-30" stroke="#808080" stroke-width="2.85204991"></path>
                    <rect id="Rectangle-4" stroke="#7F7F7F" stroke-width="2.85204991" x="1" y="22" width="162" height="67"></rect>
                    <rect id="Rectangle-6" fill="#F3BC12" x="145" y="0" width="26" height="8"></rect>
                    <rect id="Rectangle-7" fill-opacity="0.801958859" fill="#110911" x="118" y="2" width="17" height="4"></rect>
                    <rect id="Rectangle-8" fill-opacity="0.801958859" fill="#110911" x="87" y="2" width="20" height="4"></rect>
                </g>
            </g>
        </g>
    </g>
</svg>