<?xml version="1.0" encoding="UTF-8" standalone="no"?>
<svg width="48px" height="48px" viewBox="0 0 48 48" version="1.1" xmlns="http://www.w3.org/2000/svg" xmlns:xlink="http://www.w3.org/1999/xlink">
    <g stroke="none" stroke-width="1" fill="none" fill-rule="evenodd">
        <g fill="#D7CDD2">
            <path d="M15.7277353,8.47893333 C15.7277353,10.2997333 16.8331038,11.8709333 18.4167667,12.5706667 L18.3696183,15.9584 C18.3696183,15.9584 13.8624241,15.9583999 13.8624241,15.9584004 L13.8624241,18.4122661 C13.8624241,18.4122657 18.3125164,18.4122667 18.3125164,18.4122667 L17.9442348,35.1333333 C17.9379484,35.4917333 17.9479019,39.1061333 13.0696122,36.6085333 C12.9828586,36.5640703 11.7100442,37.3333333 11.7100442,37.3333333 L11.4481086,38.4 C11.4481086,38.4 11.7100442,39.2 11,39.4375558 C11.2550286,39.6324695 11.5099326,39.8145196 11.7640297,39.9849724 C15.4943442,42.4873335 19.0507705,42.4902292 20.2749383,44 C22.026764,41.8394667 28.548438,42.7648 33.527311,35.0373333 C33.9343591,34.9685333 34.5975802,34.8917333 35.0412992,35.3770667 C35.2194154,34.6789333 37.106399,32.2198303 35.0412983,27.6363636 C32.4681805,30.1818182 32.647082,30.1818182 29.2708566,31.1813333 C29.5982762,31.2645333 32.3627451,34.104 27.4718825,36.6085333 C22.5956883,39.1061333 22.6056418,35.4938667 22.5972599,35.1333333 L22.2289783,18.4122667 C22.2289783,18.4122667 26.6403768,18.4122663 26.6403768,18.4122667 C26.6403768,18.412267 26.6403768,15.9584005 26.6403768,15.9584 C26.6403768,15.9583995 22.1739718,15.9584 22.1739718,15.9584 L22.1268234,12.5706667 C23.7104864,11.8709333 24.8179504,10.2997333 24.8179504,8.47893333 C24.8158549,6.00426667 22.7816626,4 20.2749383,4 C17.7661186,4 15.7277353,6.00426667 15.7277353,8.47893333 Z M20.2749383,6.83946667 C21.1629002,6.83946667 21.8832233,7.5728 21.8832233,8.47733333 C21.8832233,9.38133333 21.1629002,10.1146667 20.2749383,10.1146667 C19.3864526,10.1146667 18.6603669,9.38133333 18.6603669,8.47733333 C18.6582714,7.57493333 19.3848809,6.83946667 20.2749383,6.83946667 L20.2749383,6.83946667 Z" transform="translate(23.500000, 24.000000) scale(-1, 1) translate(-23.500000, -24.000000) "></path>
        </g>
    </g>
</svg>