<svg width="48" height="48" viewBox="0 0 48 48" xmlns="http://www.w3.org/2000/svg"><path d="M31.272 8.48c0 1.82-1.105 3.39-2.69 4.09l.048 3.388h4.508v2.454h-4.45l.368 16.72c.006.36-.004 3.974 4.874 1.477.087-.046 1.36.723 1.36.723l.262 1.067s-.262.8.448 1.038c-.255.194-.51.377-.764.547-3.73 2.502-7.287 2.505-8.51 4.015-1.753-2.16-8.274-1.235-13.253-8.963-.407-.068-1.07-.145-1.514.34-.18-.698-2.066-3.157 0-7.74 2.572 2.545 2.393 2.545 5.77 3.544-.328.085-3.093 2.924 1.798 5.43 4.876 2.496 4.866-1.116 4.875-1.477l.368-16.72h-4.41v-2.455h4.466l.047-3.387c-1.583-.7-2.69-2.27-2.69-4.09 0-2.476 2.035-4.48 4.542-4.48 2.51 0 4.547 2.004 4.547 4.48zm-4.547-1.64c-.888 0-1.608.733-1.608 1.637s.72 1.638 1.608 1.638c.89 0 1.615-.734 1.615-1.638a1.627 1.627 0 0 0-1.615-1.638z" fill="#D7CDD2" fill-rule="evenodd"/></svg>