<?xml version="1.0" encoding="UTF-8" standalone="no"?>
<svg width="27px" height="27px" viewBox="0 0 27 27" version="1.1" xmlns="http://www.w3.org/2000/svg" xmlns:xlink="http://www.w3.org/1999/xlink">
    <title>icon-mail</title>
    <description>(c) copyright sascha.st/einbock</description>
    <defs></defs>
    <g stroke="none" stroke-width="1" fill="none" fill-rule="evenodd">
        <g transform="translate(-1053.000000, -3008.000000)">
            <g transform="translate(50.000000, 2992.000000)">
                <g transform="translate(856.000000, 16.000000)">
                    <g transform="translate(147.000000, 0.000000)">
                        <path d="M7.3733075,22.5261308 C9.33263627,24.0752524 11.8083249,25 14.5,25 C17.2454449,25 19.766188,24.0379372 21.7434927,22.4325483 C24.3404575,20.3240525 26,17.1058297 26,13.5 C26,7.14872538 20.8512746,2 14.5,2 C8.14872538,2 3,7.14872538 3,13.5 C3,17.1595996 4.70940544,20.4199461 7.3733075,22.5261308 Z" stroke="#FFFFFF" stroke-width="1.20930233"></path>
                        <path d="M17.3924015,7 L13,15.3728419 L15.5873348,21 L18.28549,21 L15.9104082,15.3525968 L20,7 L17.3924015,7 Z" id="Path" fill="#FFFFFF"></path>
                        <path d="M8.82876565,10 L10.2445487,12.77055 L8,17 L10.6510927,17 L13,12.5731225 L11.4130783,10 L8.82876565,10 Z" id="Path" fill="#FFFFFF"></path>
                    </g>
                </g>
            </g>
        </g>
    </g>
</svg>