<?xml version="1.0" encoding="UTF-8" standalone="no"?>
<svg width="34px" height="123px" viewBox="0 0 34 123" version="1.1" xmlns="http://www.w3.org/2000/svg" xmlns:xlink="http://www.w3.org/1999/xlink" xmlns:sketch="http://www.bohemiancoding.com/sketch/ns">
    <!-- Generator: Sketch 3.0.1 (7597) - http://www.bohemiancoding.com/sketch -->
    <title>sprite</title>
    <description>Created with Sketch.</description>
    <defs></defs>
    <g id="Page-2" stroke="none" stroke-width="1" fill="none" fill-rule="evenodd" sketch:type="MSPage">
        <g id="sprite" sketch:type="MSLayerGroup" transform="translate(2.000000, 2.000000)">
            <g id="devices" transform="translate(0.000000, 96.000000)" fill-opacity="0.801958859" fill="#221122" sketch:type="MSShapeGroup">
                <path d="M9.92500409,19 L9,22.5334649 C9,22.7904181 9.20402816,23 9.45677092,23 L15.542656,23 C15.7959718,23 16,22.7904181 16,22.5334649 L15.0744228,19 L9.92500409,19 L9.92500409,19 Z" id="Shape"></path>
                <path d="M20.3413086,3.18823242 L20.3413086,8.08024025 L24,8.0802401 L24,1.7853342 C24,0.798961713 23.2327525,0 22.2862636,0 L1.71373641,0 C0.767247541,0 0,0.798961713 0,1.7853342 L0,17.2146658 C0,18.2010383 0.767247541,19 1.71373641,19 L17.359789,19 L17.3597889,15.5262451 L3.02807617,15.5262451 L3.02807617,3.18823242 L20.3413086,3.18823242 Z" id="Shape"></path>
                <path d="M19.611464,9 C19.2736864,9 19,9.25975377 19,9.57898387 L19,22.4228368 C19,22.7408531 19.2736864,23 19.611464,23 L29.3891134,23 C29.726891,23 30,22.7408531 30,22.4228368 L30,9.57898387 C29.9994226,9.25975377 29.7263136,9 29.388536,9 L19.611464,9 Z M21.1461182,20.1903076 L21.1461182,11.4953613 L27.8754883,11.4953613 L27.8754883,20.1903076 L21.1461182,20.1903076 Z M24.4995178,22 C24.222758,22 24,21.7760618 24,21.5 C24,21.2239382 24.2237223,21 24.4995178,21 C24.7762777,21 25,21.2239382 25,21.5 C25,21.7760618 24.7762777,22 24.4995178,22 L24.4995178,22 Z" id="Shape"></path>
            </g>
            <g id="pencil+ruler" transform="translate(3.000000, 45.000000)" sketch:type="MSShapeGroup">
                <path d="M24.0761048,5.3832219 C25.3074524,4.15274189 25.3084776,2.15577538 24.0761048,0.92324457 C22.8447572,-0.308260837 20.8480466,-0.307235437 19.6166991,0.92324457 L19,1.54104807 L23.460431,6 L24.0761048,5.3832219 L24.0761048,5.3832219 Z" id="Shape" fill="#F3BC12"></path>
                <path d="M15.6904498,8.7429652 L15.6913574,8.74205749 L16.3330476,9.38381241 L17.9486184,11 L23,5.94901664 L19.0522892,2 L14,7.05189107 L15.6160246,8.66762481 L15.6904498,8.7429652 Z" id="Shape" fill-opacity="0.801958859" fill="#110911"></path>
                <rect id="Rectangle-path" fill-opacity="0.801958859" fill="#110911" transform="translate(7.000000, 18.000000) rotate(225.008103) translate(-7.000000, -18.000000) " x="4" y="15" width="6" height="6"></rect>
                <path d="M0,25 L7,22.4883567 L2.51267502,18 L0,25 Z" id="Shape" fill="#F3BC12"></path>
                <path d="M22.8986111,17.6351852 L19.8287037,20.7050926 L19.0972222,19.974537 L22.1671296,16.9037037 L20.4319444,15.1675926 L18.4569444,17.1412037 L17.7263889,16.4106481 L19.700463,14.437037 L17.9643519,12.7009259 L14.8944444,15.7703704 L14.162963,15.0398148 L17.2337963,11.9694444 L15.4976852,10.2333333 L13.5236111,12.2069444 L12.7921296,11.4763889 L14.7662037,9.50231481 L13.0300926,7.7662037 L9.96018519,10.8361111 L9.2287037,10.1055556 L12.2990741,7.03564815 L10.562963,5.29953704 L8.58935185,7.27361111 L7.85787037,6.54212963 L9.83148148,4.56805556 L8.09537037,2.83194444 L5.02546296,5.90277778 L4.29398148,5.1712963 L7.36481481,2.10138889 L5.26342593,0 L0,5.2625 L19.7375,25 L25,19.7365741 L22.8986111,17.6351852 Z" id="Shape" fill-opacity="0.801958859" fill="#110911"></path>
            </g>
            <g id="binoculars" sketch:type="MSShapeGroup">
                <path d="M28.0429944,8.82717608 L25.7569134,5.11991921 C25.6383981,4.90168027 25.5060461,4.69129569 25.3562476,4.49269264 C25.33459,4.46351931 25.3147372,4.43434598 25.2888684,4.40909983 C24.6234985,3.56026817 23.6850021,2.91003955 22.5912928,2.5773514 C22.4589408,1.13663777 21.1600858,0 19.5814868,0 C17.9144524,0 16.5590471,1.2645516 16.5590471,2.81915341 C16.5590471,3.25563129 16.6691399,3.66910713 16.8610504,4.03882297 C16.4471494,4.47305675 16.1138629,4.97236949 15.880442,5.51993043 C15.6049091,5.42736122 15.3095233,5.37294174 15.0009024,5.37294174 C14.6910783,5.37294174 14.3974973,5.42736122 14.1219644,5.51993043 C13.8771131,4.94824539 13.5233722,4.42929675 13.084204,3.98047631 C13.2574649,3.62590816 13.3561273,3.2337513 13.3561273,2.81971444 C13.3561273,1.26511263 12.0001203,0.000561025555 10.3336876,0.000561025555 C8.74365813,0.000561025555 7.43938877,1.15290751 7.32207672,2.60764678 C6.26446347,2.94818929 5.35785189,3.58383124 4.71053001,4.40909983 C4.6858644,4.43490701 4.66601159,4.46408034 4.64435398,4.49269264 C4.49455552,4.69129569 4.36220346,4.90168027 4.24308661,5.11991921 L1.95820884,8.82717608 C0.748390719,10.0154282 0,11.6160341 0,13.3793374 C0,17.0299307 3.18607496,20 7.10128943,20 C10.0358955,20 12.5596086,18.330949 13.6400826,15.9583719 C14.0509756,16.1479985 14.5111998,16.2568375 15.0003008,16.2568375 C15.4888002,16.2568375 15.949626,16.1479985 16.360519,15.9583719 C17.440993,18.330949 19.9647061,20 22.8999138,20 C26.8145266,20 30,17.0299307 30,13.3793374 C30,11.6154731 29.2510077,10.0154282 28.0429944,8.82717608 L28.0429944,8.82717608 Z M6.50058793,17 C4.01835641,17 2,15.2059054 2,13.0005226 C2,11.6736347 2.733734,10.4988241 3.85726418,9.76979357 C4.60099294,9.28795401 5.51169323,9 6.50058793,9 C8.45074471,9 10.111053,10.1105304 10.7330807,11.6563888 C10.902404,12.0776065 11,12.5280899 11,13 C11,15.2059054 8.98281944,17 6.50058793,17 L6.50058793,17 Z M15.8219833,14.5673738 C15.6415771,14.8285031 15.3405018,15 15,15 C14.6594982,15 14.3590203,14.8285031 14.1786141,14.5673738 C14.0663082,14.4054377 14,14.2112339 14,14.0008963 C14,13.8957275 14.0203106,13.7977293 14.0507766,13.7027189 C14.0806452,13.6065133 14.1212664,13.5156857 14.1786141,13.4338213 C14.3590203,13.172692 14.6594982,13 15,13 C15.3405018,13 15.6415771,13.172692 15.8219833,13.4338213 C15.8775388,13.5156857 15.9187575,13.6065133 15.9498208,13.7027189 C15.9796894,13.7977293 16,13.8957275 16,14.0008963 C16,14.2112339 15.9336918,14.4054377 15.8219833,14.5673738 L15.8219833,14.5673738 Z M22.500294,17 C20.0190762,17 18,15.2057882 18,13.0002613 C18,12.5283204 18.0970144,12.0772849 18.2669367,11.6565624 C18.889593,10.110603 20.5488339,9 22.500294,9 C23.4880774,9 24.401189,9.28797282 25.1432025,9.76984386 C26.2662181,10.4989221 27,11.6738094 27,13.000784 C27,15.2057882 24.9815117,17 22.500294,17 L22.500294,17 Z" id="Shape" fill-opacity="0.8" fill="#221122"></path>
                <path d="M6.34106434,10 C5.624305,10 4.96092137,10.2305494 4.41572677,10.6167037 C3.56108022,11.2219752 3,12.2172118 3,13.3420133 C3,13.7053033 3.29420175,14 3.65830024,14 C4.02239873,14 4.31787133,13.7053033 4.31787133,13.3420133 C4.31787133,13.0358844 4.39030977,12.7475389 4.51421763,12.4865037 C4.71501191,12.0590664 5.05941223,11.7154652 5.48578237,11.5147666 C5.50293884,11.5058749 5.52009531,11.4950778 5.53788721,11.4861861 C5.78506751,11.3794856 6.05512311,11.3185138 6.34106434,11.3185138 C6.70579825,11.3185138 7,11.023182 7,10.6592569 C7,10.295967 6.70579825,10 6.34106434,10 L6.34106434,10 Z" id="Shape" fill="#F3BC12"></path>
                <path d="M22.3412736,10 C20.9113864,10 19.6911228,10.9056843 19.2166111,12.1708479 C19.0781324,12.5354081 19,12.9285487 19,13.3420133 C19,13.7053033 19.2947435,14 19.6587264,14 C20.0227092,14 20.3168175,13.7053033 20.3168175,13.3420133 C20.3168175,13.0358844 20.3911386,12.7475389 20.5143719,12.4865037 C20.5499444,12.410289 20.5893283,12.3372499 20.6337939,12.2654811 C20.8383357,11.9402985 21.1343497,11.6792633 21.4868985,11.5141315 C21.7460696,11.3915529 22.0338256,11.3178787 22.3412736,11.3178787 C22.7058917,11.3178787 23,11.0225468 23,10.6586218 C23,10.295967 22.7058917,10 22.3412736,10 L22.3412736,10 Z" id="Shape" fill="#F3BC12"></path>
            </g>
        </g>
    </g>
</svg>