<svg width="65" height="54" viewBox="0 0 65 54" xmlns="http://www.w3.org/2000/svg"><title>woof_large</title><path d="M13.34 30.333l-3.163-.54c-.8-.136-1.422-.56-1.392-.94.03-.378.68-.907 1.446-1.174l6.76-2.348a1.47 1.47 0 0 1 .244-.067c3.743-1.31 15.317-5.382 16.37-5.98 1.257-.713 3.973-2.437 6.564-5.672.99-1.24 1.887-2.98 2.543-4.434-1.99.55-2.85-.434-2.02-2.085 1.415-2.816 3.617-3.425 5.44-3.346.643-.39 1.503-.72 2.075-.783.68-.073 1.86.094 2.616.373l11.893 4.38c.76.278.992 1.037.525 1.682l-1.64 2.264c-.47.65-1.504 1.305-2.296 1.46l-3.593.707c-.793.156-1.976.673-2.626 1.145-.768.56-1.5 1.524-1.747 2.224-.248.702-.417 1.926-.384 2.72l1.227 26.966c.038.796-.504 1.446-1.205 1.446-.698 0-1.41-.636-1.58-1.415l-2.167-9.948c-.17-.78-.927-1.182-1.683-.895l-.735.276c-.755.283-1.463 1.16-1.575 1.95l-1.67 12.006c-.108.79-.792 1.43-1.52 1.43-.725 0-1.38-.65-1.45-1.44l-.98-10.88c-.07-.794-.792-1.466-1.6-1.496 0 0-9.807-.412-11.033-.412-3.574 0-4.455 5.75-4.397 6.543l.2 2.836c.057.793-.495 1.443-1.227 1.443-.732 0-1.507-.627-1.73-1.392l-1.7-5.85c-.81.485-1.69 1.397-2.084 2.093l-3.51 6.255c-.388.694-1.37 1.267-2.18 1.267-.895.003-1.36-.616-1.115-1.375l6.103-19z" fill="#F2B333" fill-rule="evenodd"/></svg>