<svg width="34" height="28" viewBox="0 0 34 28" xmlns="http://www.w3.org/2000/svg"><title>woof</title><path d="M7.388 15.728l-1.63-.28c-.412-.07-.733-.29-.717-.486.018-.197.353-.47.747-.61l3.48-1.216a.754.754 0 0 1 .127-.035c1.928-.68 7.89-2.79 8.432-3.1.648-.37 2.048-1.262 3.382-2.94.51-.642.972-1.545 1.31-2.3-1.026.286-1.47-.223-1.04-1.08.728-1.46 1.862-1.775 2.8-1.734.333-.202.776-.375 1.07-.406.35-.04.96.048 1.348.193l6.126 2.27c.392.144.512.537.272.872L32.25 6.05c-.243.335-.776.675-1.184.756l-1.85.365c-.41.083-1.02.35-1.354.595-.395.29-.772.79-.9 1.153-.127.364-.215.998-.197 1.41l.63 13.983c.02.413-.26.75-.62.75s-.725-.33-.813-.734l-1.117-5.157a.63.63 0 0 0-.867-.464l-.378.143c-.39.146-.754.6-.812 1.01l-.86 6.226c-.056.41-.408.742-.783.742-.374 0-.71-.337-.747-.748l-.505-5.642a.882.882 0 0 0-.824-.775s-5.05-.214-5.684-.214c-1.84 0-2.295 2.982-2.265 3.393l.104 1.47c.03.41-.254.748-.63.748-.378 0-.777-.324-.892-.72l-.876-3.035c-.417.252-.87.725-1.073 1.086l-1.81 3.244c-.2.36-.705.657-1.123.657-.46.003-.7-.32-.574-.71l3.145-9.853z" fill="#D7CDD2" fill-rule="evenodd"/></svg>